<svg version="1.0" xmlns="http://www.w3.org/2000/svg" width="1200" height="176" viewBox="0 0 900 132"><g fill="#0d4c8b"><path d="M7 1.6c0 .9-.9 1.8-2 2.1C.1 5 0 6.2 0 67c0 61.6-.1 60.7 5.5 63.6 2.3 1.2 66.8 1.4 443.5 1.4 392 0 441-.2 443.7-1.5 1.7-.9 3.3-2.4 3.6-3.5.3-1.1 1.2-2 2.1-2 1.4 0 1.6-5.6 1.6-58s-.2-58-1.6-58c-.9 0-1.8-.9-2.1-2.1-.3-1.1-1.6-2.5-2.9-3-1.3-.4-2.4-1.5-2.4-2.4C891 .2 844.4 0 449 0 45.2 0 7 .1 7 1.6zm111.6 33.9c9.1 3.6 15.7 9.2 19.5 16.7 2.6 5.1 3.8 13.7 2.7 20.4-1.1 6.9-3.4 11.7-8.5 17-13 13.9-33.3 13.9-46.7 0-9.1-9.4-11.7-24.4-6.2-35.9 4.4-9.2 9.3-13.6 20.6-18.5 3.7-1.6 14.2-1.4 18.6.3zm81.1 12.6c6.1 2.3 6.8 4 7.1 19.2l.4 13.8-3.7 3.5c-3.1 2.9-4.4 3.4-8.3 3.4-3.8 0-5.4-.6-7.9-2.9-3.9-3.5-4.8-8.4-4.1-21.8.5-8.6.8-9.7 3.3-12.3 3.6-3.8 8.2-4.8 13.2-2.9zm34.6 2.9c1.9 2.1 2.7 4.1 2.7 6.6 0 3.1-.3 3.5-2.2 3.2-1.6-.2-2.4-1.1-2.6-2.8-.8-5.5-7.5-7.8-11.2-3.8-1.8 1.9-2 3.5-2 13.4 0 8.9.3 11.6 1.6 12.8 2.5 2.5 6.1 3 9 1.2 2.1-1.5 2.5-2.3 2.2-5.9-.3-3.8-.6-4.2-3.3-4.7-1.8-.3-3.1-1.2-3.3-2.3-.3-1.5.5-1.7 5.8-1.7h6.2l-.4 8c-.3 7.5-.5 8.2-3.3 10.5-2.2 1.8-4.2 2.4-7.7 2.5-3.9 0-5.2-.5-8.2-3.4l-3.6-3.3V67.9c0-10.8.3-13.9 1.6-15.8 4.1-5.8 13.9-6.5 18.7-1.1zm528.4-3.1c4.1 1.2 6.7 3.7 8.2 8.1 1 3 .9 3.7-.6 4.8-2.5 1.8-7.1.7-10-2.4-1.9-2.1-2.6-2.4-3.8-1.4-2.4 2-1.9 2.6 4.8 6.6 7.3 4.4 9.4 6.5 10.2 10.5 1.7 7.5-4.4 13.9-13.2 13.9-8.1 0-14.5-6.2-12.9-12.5.5-2 1.2-2.5 3.9-2.5 3.6 0 4.7.6 6.3 3.5 1.5 2.6 4.9 2.7 4.9.1 0-1.8-3.1-4.3-8.1-6.5-1.1-.5-3.3-2.4-4.9-4.2-2.4-2.9-2.7-3.9-2.2-8.1 1-8.4 8.2-12.5 17.4-9.9zm30 0c4.4 1.3 7.4 4.7 8 9.1.5 3.2.2 3.9-1.5 4.4-2.9 1-7.1-.3-8.3-2.5-1-2-4.4-2.6-5.4-.9-1 1.6 1.1 3.6 5.9 5.9 6.5 3.2 10.1 7.4 10.1 12 0 7.6-5 12.1-13.4 12.1-8.2 0-14.3-6-12.7-12.5.5-2 1.3-2.5 3.9-2.5 3.6 0 4.7.6 6.3 3.5 1.5 2.6 4.9 2.7 4.9.1 0-1.3-1.7-2.9-5-4.7-2.7-1.5-6.3-4.2-7.8-6-2.6-2.8-2.9-3.8-2.5-7.9.8-8.4 8.3-12.7 17.5-10.1zM161.8 65.3 162 82h6.8c7.4 0 11 1.6 9.9 4.4-.9 2.4-20.2 2.4-21.1 0-.8-2.2-.8-36.9.1-37.8.4-.4 1.4-.5 2.3-.4 1.3.3 1.5 2.9 1.8 17.1zm99.6-16.7c1.4.5 1.6 3.2 1.6 19 0 17.4-.1 18.4-2 19.4-1.1.6-2.5.8-3 .5-1.1-.7-1.4-37.8-.3-38.8.8-.9 1.7-.9 3.7-.1zM282.7 61c3.6 7.2 6.4 11.8 6.7 11 .3-.8.7-6.5.8-12.5.3-11 .3-11 2.8-11h2.5l.3 18.6c.2 16.1 0 18.8-1.4 20-2.5 2.1-4.2.2-10.4-12-3.2-6.2-6.3-11.8-6.9-12.4-.8-.8-1.1 2.4-1.1 11.6 0 10.8-.2 12.9-1.6 13.4-.9.3-2 0-2.5-.8-1-1.6-1.2-34.8-.3-37.4.4-.9 1.5-1.5 2.8-1.3 1.6.2 3.6 3.3 8.3 12.8zm36.1-11.3c.6 1 1.3 3.8 1.6 6.3.4 2.5 1.1 5.6 1.6 7 .5 1.4 1.1 4.2 1.5 6.4.3 2.1.8 3.6 1.1 3.4.8-.8 3.3-11.2 4-16.7 1.2-9 5.7-10.8 8-3.3.7 2.4 1.6 6.7 1.9 9.5.7 5 2.3 8.7 3.6 8.7.4 0 1-2.4 1.4-5.3.4-2.8 1.1-6.6 1.5-8.2.5-1.7 1.2-4.3 1.5-5.8.7-3.4 3.1-4.5 5.2-2.4 1.2 1.1 1.3 2 .6 2.9-.6.7-1.3 3.1-1.7 5.3-.7 4-2.2 10.9-5.3 23.1-.9 3.6-2.3 6.8-3 7.1-2.2.9-4.1-1.5-4.8-6-.3-2.3-1-5.6-1.5-7.2-.5-1.7-1.2-5.3-1.5-8-.6-3.8-.9-4.5-1.5-3-1.7 4.6-2.9 9.3-3.6 14-1.3 9.8-5.1 13.5-7.4 7.2-1.9-5.1-6.9-26.3-7.7-32.5-.4-3.7-.3-4.2 1.6-4.2 1.1 0 2.4.8 2.9 1.7zm43.9-.5c1.3 1.7 1.5 33 .3 36.3-1.2 3.1-3.6 3.3-4.4.2-.8-2.9-.8-34.1 0-36.1.7-1.9 2.8-2.1 4.1-.4zm31.2.1c1.5 1.8.4 2.7-3.3 2.7-5.8 0-5.9.4-5.7 16.2.2 14.5-.6 19.8-3.3 19.8-2 0-2.8-5.5-2.6-20.4.1-7.2.1-13.7.1-14.4-.1-.7-1.6-1.2-4-1.2-4 0-5.7-1.1-4.6-3 1-1.6 22-1.3 23.4.3zm10.5-.7c1.2.5 1.6 2.1 1.6 7.3 0 3.9.5 7.2 1.2 7.9.7.7 3.4 1.2 6 1.2 5.3 0 5 .5 4.9-9-.2-6.6 1-9 3.6-7.4 1.6 1 1.8 3.1 2.1 18.3.2 17.2-.4 21.1-3.3 21.1-1.6 0-3-7.4-2.3-12.3.8-4.9.1-5.7-4.7-5.7-7.2 0-7.5.3-7.5 8.5 0 7.2-1.5 10.6-4 9-1.3-.8-1.4-39.5-.1-39.5.5 0 1.6.3 2.5.6zm50.4 3.4c2.7 4 4.2 4.4 5.7 1.4 2.3-4.7 3.7-5.5 8.4-5.2l4.6.3.3 17.8c.1 11.1-.1 18.5-.8 19.7-.8 1.4-2.1 2-4.6 2-4.4 0-5.6-2.8-5.4-12 .3-9.5.2-9.8-1.6-7.2-1.9 2.8-4.9 2.8-6.8 0-1.5-2.1-1.6-1.7-1.6 6.5 0 4.9-.5 9.7-1 10.8-1.5 2.6-7.5 2.6-9 0-1.1-2.1-1.4-33.8-.4-36.6.5-1.2 1.7-1.5 5.2-1.3 4 .3 4.9.8 7 3.8zm43.6-3.4c.9.3 1.6 1.4 1.6 2.4s.7 4.2 1.6 7.1c4.6 16 6.6 23.8 6.7 26.9.2 2.2-.2 2.5-3.9 2.8-3.7.3-4.5-.1-6.4-2.7-3-4.2-8.3-4.4-10.2-.4-1 2.2-2.1 2.9-5.1 3.1-5.7.5-5.9-1.2-1.3-19.3.8-3.3 2.2-8.6 3-11.8.8-3.2 2-6.5 2.6-7.3 1.3-1.4 8.4-1.9 11.4-.8zm37.2 3c3 3.1 3.4 4.2 3.4 8.9 0 4.9-.4 5.8-3.5 9-2.7 2.6-4.4 3.5-7 3.5-5.9 0-6.5.6-6.5 6.9 0 7.3-.8 8.3-5.6 7.9l-3.9-.3-.3-18.5c-.1-10.1 0-19 .2-19.7.4-.9 3.3-1.3 10.2-1.3h9.7l3.3 3.6zm17-2.8c.5.4 2 2.4 3.3 4.5 2.1 3.4 4.1 4.2 4.1 1.5 0-.5.9-2.3 2.1-3.9 1.7-2.4 2.7-2.9 6.4-2.9 3.2 0 4.7.5 5.3 1.7.4 1 .7 9.6.6 19.2-.2 18.9-.2 19.1-6.1 19.1-4.4 0-5.3-2.1-5.3-11.9 0-7.6-1-10.2-2.4-6.5-.6 1.6-1.9 1.6-5.8-.1-1.6-.6-1.8 0-1.8 7 0 4.2-.5 8.5-1 9.6-1.2 2.2-6.8 2.7-8.8.7-1.3-1.3-1.8-36.9-.5-38.1.9-.9 8.5-.9 9.9.1zm35.6.9c1 .9 1.8 2.6 1.8 3.7 0 1.2.4 2.7.9 3.5.7 1.1 1.5.3 3.3-3.5 2.3-4.8 2.4-4.9 6.8-4.9 5.2 0 6 1.5 3.6 6.7-6.1 13.5-7.6 18.2-7.6 24.2 0 6.6-1.1 8.6-4.6 8.6-4.9 0-5.4-.8-5.4-8.2 0-3.9-.6-8.4-1.4-10.1-4.5-10-7.7-18.9-7.2-20.2.8-2.1 7.5-1.9 9.8.2zm46.6 2.5-.3 4.3-6.7.3c-5.6.2-6.8.6-7.3 2.2-.9 2.9.2 4 3.9 4 3.7 0 5.6 1.5 5.6 4.4 0 3.6-1.6 5-5.4 4.8-4-.3-4.4.4-4.8 9.8l-.3 5.5-3.9.3c-2.4.2-4.2-.2-4.7-1-1-1.5-1.2-34.8-.3-37.2.5-1.3 2.6-1.6 12.6-1.6h11.9l-.3 4.2zM647.5 68v19.5h-9l-.3-18.5c-.1-10.1 0-19 .3-19.8.3-.9 1.9-1.2 4.7-1l4.3.3V68zm32.3-17.7c.2 1 .1 2.9-.2 4.3-.5 2-1.3 2.4-4.1 2.4-4.3 0-4.4.4-4.8 17.5l-.2 13-4.3.3c-3.8.3-4.3 0-5.2-2.4-.6-1.5-1-8-.9-14.5 0-6.5-.2-12.2-.6-12.8-.3-.6-1.9-1.1-3.5-1.1s-3-.7-3.4-1.6c-.8-2.1-.8-5.9.1-6.8.4-.3 6.6-.5 13.7-.4 11.8.3 13.1.5 13.4 2.1zm17 4.5c1.4 3.4 3 6.1 3.6 5.9.6-.2 1.3-3 1.6-6.3l.5-5.9 3.8-.3c6.5-.5 6.7 0 6.7 19 0 9.8-.4 17.8-1 18.9-.8 1.4-2.1 1.9-4.8 1.9-5 0-5.7-.6-8.2-6.9-1.1-3-3-6.6-4.2-8l-2.1-2.6.7 6.8c.9 9-.2 10.9-5.7 10.5l-4.2-.3-.3-18.5c-.1-10.1 0-19 .3-19.8.3-.9 2-1.2 5.6-1l5.1.3 2.6 6.3zm45-3.5c.5 4.3-1.3 5.7-7.3 5.7-5.6 0-8 1.5-6.9 4.4.4.9 1.8 1.6 3.4 1.6 4.5 0 6 1 6 4 0 3.3-1.5 4.7-5.4 5.2-3.5.4-5.6 3.2-3.8 5 .7.7 2.9 1.1 4.9 1 2-.2 4.9 0 6.5.3 2.5.6 2.8 1.1 2.8 4.5 0 2.5-.5 4-1.6 4.4-.9.3-6.2.6-11.9.6-9.3 0-10.5-.2-11.5-1.9-1.5-2.9-1.3-35.4.2-36.9.9-.9 4.7-1.2 12.8-1l11.5.3.3 2.8z"/><path d="M95.6 46.8c-.3.5 1.5 3.8 3.9 7.2 3.8 5.4 4.5 7.1 4.5 11 0 4.3-.6 5.3-6 11.8-3.3 4-6 7.6-6 8.1 0 2.9 2.7 1.7 7.3-3 5.6-5.6 10.2-8.9 12.8-8.9 3 0 4.9 3.4 4.9 8.8 0 4.4.3 5.2 1.9 5.2 2.2 0 3.1-2.6 3.1-9.3 0-4.3-.3-5-3-6.5-4.2-2.4-4.1-7.2.5-16.3 1.9-3.9 3.5-7.2 3.5-7.5 0-1.2-3.2-.1-3.8 1.3-.4 1-1.8 3.5-3.1 5.5-2 3.3-2.8 3.8-6.1 3.8-3.4 0-4.2-.5-7.4-4.9-4.2-5.7-6.2-7.5-7-6.3z"/><path d="M107.4 50.4c-1 2.6.4 4.8 2.8 4.4 1.7-.2 2.3-1 2.3-2.8 0-1.8-.6-2.6-2.3-2.8-1.3-.2-2.5.3-2.8 1.2zm83.8 3.5c-2 1.7-2.2 2.8-2.2 13.9 0 11.4.1 12.2 2.2 13.6 3 2.1 5 2 8.2-.5 2.5-2 2.6-2.3 2.6-13.3 0-10.5-.2-11.4-2.3-13.4-2.9-2.7-5.7-2.8-8.5-.3zM491.7 67c-1.1 4-.8 6 .7 6 2.3 0 2.7-1.6 1.3-5.2-1.3-3.3-1.3-3.3-2-.8zm31-9.3c-1.1 1-.8 5.1.4 5.8 1.9 1.2 5.9-.4 5.9-2.5 0-2.7-4.6-5.1-6.3-3.3z"/></g></svg>