<svg version="1.0" xmlns="http://www.w3.org/2000/svg" width="204" height="204" viewBox="0 0 153 153"><g fill="#0D4C8B"><path d="M0 76.5V153h153V0H0v76.5zm92.3-58.9c2.9.8 6.4 2.2 7.9 3 1.4.8 3.1 1.4 3.6 1.4 1.5 0 11.2 6.7 15 10.3 4.5 4.2 11.3 13.3 13.3 17.7.8 1.9 2.3 5.1 3.2 7 .8 1.9 2.3 7.7 3.2 12.8 1.5 8.5 1.5 9.9-.1 18-2 10.8-3.9 16.1-8.3 23.6-6.3 10.6-17.7 21.1-27.4 25.4C93.1 141 87.9 142 76 142c-12.1 0-19-1.3-25.2-4.6-1.4-.8-3.1-1.4-3.6-1.4-1.5 0-11.2-6.7-15-10.3-4.6-4.3-11.3-13.4-13.4-18-1-2-2.4-5.2-3.2-7-.8-1.7-2.2-7.4-3.1-12.5-1.5-8.5-1.5-9.9.1-18 .9-4.8 2.3-10.7 3.2-13.2 4.1-11.3 13.9-24 24-30.7 5.4-3.7 8.4-5.1 17.7-8.6 5.7-2.2 27.9-2.2 34.8-.1z"/><path d="M48.7 37.7c-2.1 2.1-.8 5 7.8 16.8 5.8 8 8.1 13.1 8.9 19.5 1 7.8.8 8.2-18.1 30.8-6.6 7.8-7.8 11.3-4.4 13.2 1.1.5 2.4 1 2.8 1 .5 0 5.7-4.7 11.4-10.4 5.8-5.7 13.1-12.1 16.3-14.1l5.7-3.6 4.4 1.6c2.4 1 5.3 2.7 6.4 3.9 2 2.1 2 2.7 1.1 10.4-1.1 8.8-.6 11.3 3 13.2 3 1.6 5.8-2.1 6.5-8.9.3-3.1 1-8.4 1.6-11.9 1.3-7.3 1.1-7.8-7.7-13.8-4.7-3.3-5.4-4.1-5.4-7.1 0-7.2 5.3-20.9 12.1-31.1 3.2-4.7 3.7-8.9 1.4-9.9-.9-.3-2.4.2-3.5 1.2-2 1.8-10 14.8-10 16.2 0 .5-1.3 2.2-3 3.8-2.1 2-4.2 2.9-7.8 3.3-4.4.4-5.2.1-8.4-2.6-1.9-1.7-4.8-5-6.4-7.4C58.9 45 51.9 37 50.5 37c-.6 0-1.5.3-1.8.7z"/><path d="M73.9 42.5c-3.5 1.9-5.2 6-3.8 8.8C73.2 57.4 77 58.5 82 55c4.3-3.1 4.5-6.7.5-10.7-3.6-3.6-4.8-3.9-8.6-1.8z"/></g></svg>