<svg version="1.0" xmlns="http://www.w3.org/2000/svg" width="266.667" height="266.667" viewBox="0 0 200 200">
<g fill="#015696">
<path d="M0 100v100h200V0H0v100zm127.9-63.3c0 1-1 5.2-2.2 9.3l-2.2 7.5-16.4.5-16.5.5L82.9 85c-4.3 16.8-8.5 33.3-9.5 36.7l-1.6 6.3H56.4c-8.5 0-15.4-.2-15.4-.5 0-1 18.2-72 18.7-72.8.2-.4-7.4-.7-17-.7-9.5 0-17.6-.3-17.9-.6-.5-.4 1.7-10.4 3.8-17.2.3-.9 11.1-1.2 49.9-1.2 46.5 0 49.5.1 49.4 1.7zm37.6 27.4c7.2 1.3 14.6 4.9 17.4 8.5 6.9 8.7 4 25.4-6.3 35.9-9.6 9.9-20.1 13.1-47.5 14.3l-16.5.7-4 16-4.1 16-15.2.3c-10.6.2-15.3-.1-15.3-.8 0-1 18.9-76.4 21-83.5.4-1.7 1.1-4.2 1.4-5.8L97 63h31.3c18.3 0 33.8.5 37.2 1.1z"/>
<path d="M120.7 91.7c-1.5 6-2.7 11.1-2.7 11.5 0 1.2 20.4.9 24.1-.3 5.6-1.9 9.5-5.4 10.6-9.6 2.3-9.1-2.6-12.3-19-12.3h-10.3l-2.7 10.7z"/>
</g>
</svg>