<?xml version="1.0" encoding="UTF-8"?>
<svg width="200" height="200" version="1.0" viewBox="0 0 200 200" xmlns="http://www.w3.org/2000/svg">
<g transform="translate(0 200) scale(.1 -.1)">
<path d="m0 1e3v-1e3h1e3 1e3v1e3 1e3h-1e3 -1e3v-1e3zm1279 633c0-10-10-52-22-93l-22-75-164-5-165-5-77-305c-43-168-85-333-95-367l-16-63h-154c-85 0-154 2-154 5 0 10 182 720 187 728 2 4-74 7-170 7-95 0-176 3-179 6-5 4 17 104 38 172 3 9 111 12 499 12 465 0 495-1 494-17zm376-274c72-13 146-49 174-85 69-87 40-254-63-359-96-99-201-131-475-143l-165-7-40-160-41-160-152-3c-106-2-153 1-153 8 0 10 189 764 210 835 4 17 11 42 14 58l6 27h313c183 0 338-5 372-11z"/>
<path d="m1207 1083c-15-60-27-111-27-115 0-12 204-9 241 3 56 19 95 54 106 96 23 91-26 123-190 123h-103l-27-107z"/>
</g>
</svg>