<?xml version="1.0" encoding="UTF-8"?>
<svg width="1319" height="316.26" version="1.1" viewBox="0 0 126.63 30.367" xmlns="http://www.w3.org/2000/svg">
<path d="m19.418 14.338c-5.432 0-5.53-4.135-5.53-5.733v-7.528c0-0.469-0.03-1.072 0.936-1.072h2.799c0.92 0 0.868 0.635 0.868 1.072v7.528c0 0.543 0.091 1.978 2.067 1.978h4.708c1.939 0 2.052-1.435 2.052-1.978v-7.528c0-0.438-0.062-1.072 0.853-1.072h2.836c1.02 0 0.928 0.635 0.928 1.072v7.528c0 1.601-0.106 5.733-5.545 5.733m19.049-0.92c-1.916-2.58-4.655-5.824-7.446-9.266v9.174c0 0.407 0.098 1.012-0.86 1.012h-2.618c-0.943 0-0.837-0.604-0.837-1.012v-12.268c0-0.422-0.038-1.057 0.837-1.057h5.107c1.441 0 3.501 2.897 4.844 4.828 1.049 1.449 2.965 3.651 4.255 5.312v-9.084c0-0.422-0.053-1.057 0.898-1.057h2.844c0.905 0 0.8601 0.63504 0.854 1.057v13.277h-5.243c-1.126 4e-3 -1.609 0.08-2.635-0.916m9.612 0.92v-14.319h12.652c0.77 0 5.968-0.104 5.968 5.356 0 5.568 0.596 8.963-5.862 8.963h-6.82l-1.471-2.987v2.987m7.513-3.772c2.301 0 2.127-2.202 2.127-3.214 0-3.38-0.951-3.518-2.467-3.518h-7.22v6.73zm11.589-10.456h11.664c0.981 0 0.853 0.646 0.853 1.84 0 1.116 0.151 1.75-0.853 1.75h-9.219c-0.242 0-1.086-0.119-1.086 0.74 0 0.875-0.159 1.223 0.762 1.223h8.148l1.313 2.609c0.188 0.362 0.166 0.68-0.551 0.68h-8.436l-1.305-2.551v3.758c0 0.875 0.777 0.709 1.003 0.709h9.574c0.951 0 0.868 0.664 0.868 1.75 0 1.162 0.083 1.812-0.868 1.812h-12.117c-1.011 0-2.98-0.315-2.98-3.472v-7.891c0-0.83 0.43-2.957 3.23-2.957m15.662-0.092h12.758c1.712 0 4.202-0.016 4.202 4.604 0 3.018-0.641 3.168-2.015 4.104 2.301 0.393 1.992 3.334 1.992 4.857 0 0.771-0.279 0.754-0.506 0.754h-3.742c-0.785 0-0.596-1.236-0.596-1.885 0-1.75-0.981-1.676-1.366-1.676h-5.507c-0.528-0.921-1.554-2.973-1.554-2.973v5.945l-0.702 0.588h-3.765l-0.377-0.469v-12.613c1e-3 -0.888 0.627-1.236 1.178-1.236m10.162 3.788h-5.681c-0.951 0-0.88341 0.31581-0.905 0.604v2.563h5.847c2.837 0 2.837-0.709 2.837-1.448-1e-3 -1.478-0.121-1.719-2.098-1.719m-92.41 12.243c0.936 0 1.848 0.422 2.832 2.338 0.664 1.373 5.297 9.748 6.277 11.498v0.482h-4.828l-1.39-2.52h-5.872l-1.27-2.883c-0.361 0.588-2.3 4.27-2.964 5.401h-4.843v-0.315c0.988-1.857 7.733-14.004 7.733-14.004m2.817 3.972-2.369 4.299 0.219 0.213h4.391l0.219-0.213-2.24-4.314-0.22 0.015m13.68-4.061h12.766c1.705 0 4.195-0.016 4.195 4.604 0 3.018-0.635 3.168-2.008 4.104 2.311 0.393 1.992 3.334 1.992 4.857 0 0.771-0.287 0.754-0.514 0.754h-3.742c-0.783 0-0.588-1.236-0.588-1.885 0-1.75-0.98-1.676-1.357-1.676h-5.521c-0.529-0.921-1.557-2.973-1.557-2.973v5.945l-0.691 0.588h-3.773l-0.377-0.469v-12.613c-1e-3 -0.888 0.632-1.236 1.175-1.236m10.171 3.788h-5.688c-0.951 0-0.904 0.315-0.904 0.604v2.563h5.854c2.821 0 2.821-0.709 2.821-1.448-1e-3 -1.478-0.105-1.719-2.083-1.719m17.941 10.532c-0.949-1.78-3.59-6.699-5.371-9.928v8.933c0 0.377 0.061 0.995-0.859 0.995h-2.58c-0.966 0-0.891-0.618-0.891-0.995v-12.269c0-0.438-0.061-1.057 0.891-1.057h4.467c0.664 0 1.613-0.15 2.67 1.977 0.801 1.705 2.489 5.252 3.668 7.123 1.176-1.871 2.912-5.418 3.711-7.123 1.041-2.127 1.961-1.977 2.717-1.977h4.451c0.904 0 0.799 0.619 0.799 1.057v12.269c0 0.377 0.137 0.995-0.799 0.995h-2.611c-0.95 0-0.875-0.618-0.875-0.995v-8.933c-1.811 3.229-4.422 8.146-5.416 9.928m15.432 0.03c-4.225 0-4.043-4.525-4.043-7.482 0-2.688-0.303-6.896 4.993-6.941h9.416c5.312 0 4.964 4.271 4.964 6.941 0 2.957 0.213 7.482-4.089 7.482m-2.731-3.682c2.144 0 2.067-2.218 2.067-3.695 0-1.344 0.317-3.427-2.476-3.427h-4.736c-2.775 0-2.445 2.083-2.445 3.427 0 1.479-0.136 3.695 2.008 3.695zm13.897 3.652c-5.417 0-5.522-4.135-5.522-5.733v-7.528c0-0.469-0.029-1.072 0.937-1.072h2.808c0.92 0 0.858 0.635 0.858 1.072v7.528c0 0.543 0.091 1.978 2.067 1.978h4.707c1.947 0 2.053-1.435 2.053-1.978v-7.528c0-0.438-0.045-1.072 0.859-1.072h2.821c1.026 0 0.937 0.635 0.937 1.072v7.528c0 1.601-0.092 5.733-5.553 5.733m8.569-14.32h12.767c1.705 0 4.193-0.016 4.193 4.604 0 3.018-0.648 3.168-2.021 4.104 2.31 0.393 2.008 3.334 2.008 4.857 0 0.771-0.287 0.754-0.514 0.754h-3.742c-0.77 0-0.588-1.236-0.588-1.885 0-1.75-0.996-1.676-1.373-1.676h-5.508c-0.527-0.921-1.555-2.973-1.555-2.973v5.945l-0.709 0.588h-3.758l-0.377-0.469v-12.613c0-0.888 0.634-1.236 1.177-1.236m10.155 3.788h-5.674c-0.951 0-0.906 0.315-0.906 0.604v2.563h5.855c2.821 0 2.821-0.709 2.821-1.448 2e-3 -1.478-0.119-1.719-2.096-1.719"/>
</svg>
