<?xml version="1.0" encoding="UTF-8"?>
<svg width="2484.7" height="1463.8" version="1.1" viewBox="0 0 238.53 140.55" xmlns="http://www.w3.org/2000/svg">
<path fill="#ed1a3a" d="m238.53 22.362s-6.882-5.327-29.168-13.512c-19.555-7.197-34.492-8.85-34.492-8.85l0.074 42.679c0 18.039-20.385 37.194-55.199 37.194h-0.996c-34.81 0-55.188-19.155-55.188-37.194l0.068-42.679s-14.923 1.652-34.486 8.85c-22.285 8.185-29.166 13.512-29.166 13.512 1.652 34.229 54.826 62.43 119.26 62.445h0.015c64.441-0.015 117.63-28.216 119.28-62.445"/>
<path fill="#ed1a3a" d="m238.56 118.2s-6.881 5.312-29.167 13.504c-19.569 7.198-34.493 8.843-34.493 8.843l0.075-42.672c0-18.035-20.386-37.183-55.199-37.183l-0.49-0.015h-0.015l-0.483 0.015c-34.817 0-55.195 19.148-55.195 37.183l0.076 42.672s-14.931-1.645-34.493-8.843c-22.279-8.192-29.174-13.504-29.174-13.504 1.652-34.226 54.84-62.427 119.28-62.449 64.44 0.022 117.63 28.223 119.27 62.449"/>
</svg>
