<?xml version="1.0" encoding="UTF-8" standalone="no"?>
<svg
   height="398.64444"
   width="923.0777"
   viewBox="-107.84625 -77.625 718.9756 232.08581"
   version="1.1"
   id="svg8"
   xmlns="http://www.w3.org/2000/svg"
   xmlns:svg="http://www.w3.org/2000/svg">
  <defs
     id="defs12" />
  <g
     fill="#6d1ed4"
     id="g6"
     transform="translate(-107.84625,-115.80355)">
    <path
       d="M 70,43 4.273,42.395 V 86 H 113.2 L 0,231.1 V 268 h 70 v 42.5 h 42 V 268 h 71.4 c 0.6,-1.7 0.81,-6.284 -2.99,-10.484 -6.3,-7 -11.31,-14.316 -15.91,-23.516 -2.1,-4.1 -3.695,-9.01 -4.295,-9.41 -14.06,-0.645 -94.949,-0.478 -94.905,-0.99 L 178.6,77.61 V 43 H 112 V 0 H 70 Z M 373.3,22.7 c -1,0.4 -1.3,22.5 -1.3,106.2 0,113.1 -0.1,111.2 4.9,120.9 4.5,8.7 15.5,16.5 27.8,19.7 6.8,1.8 26.8,2 34.5,0.4 9.9,-2.1 11.8,-5.1 7.9,-12.8 -2.5,-4.8 -5.8,-15.3 -6.6,-21.1 -1.1,-6.9 -2.5,-8 -10.9,-7.8 -4,0.1 -7.8,-0.2 -8.5,-0.6 C 417,225 417,224.3 417,123 c 0,-65.1 -0.3,-97.8 -1,-99.1 -1,-1.8 -2.3,-1.9 -21.3,-1.8 -11.1,0 -20.8,0.3 -21.4,0.6 z M 465,23 c -1.3,0.8 -1.5,13.6 -1.5,105.2 0,98.7 0.1,104.7 1.9,111.6 3.4,13.6 11.1,21.9 25.7,28 5.6,2.3 8.1,2.7 19.4,3 15.1,0.4 22.8,-0.7 30.5,-4.6 7.6,-3.7 7.8,-6.3 1.3,-15.8 -2.6,-3.8 -6.6,-10.3 -8.8,-14.4 l -4,-7.5 -7.3,-0.1 c -9.1,-0.2 -10,-0.6 -11.7,-4.9 C 509.2,220.6 509,205.7 509,123 509,57.9 508.7,25.2 508,23.9 507,22.1 505.7,22 486.7,22 475.6,22 465.8,22.5 465,23 Z"
       id="path2" />
    <path
       d="m 247.5,85.5 c -0.5,0.2 -4.4,1.1 -8.5,2 -25.7,5.9 -48.4,25.6 -58,50.6 -5.3,13.8 -7.2,24.5 -7.3,40.4 -0.1,22.3 4.4,38.7 14.7,54.3 11.6,17.5 28.6,29.4 50.6,35.4 7.5,2 10.8,2.3 28,2.3 17,0 20.5,-0.3 27.6,-2.2 17.6,-4.9 32.6,-13 44.7,-24.5 7.7,-7.2 7.6,-9.2 -0.2,-15.2 -3.2,-2.5 -9,-7.9 -12.8,-12.1 -4.8,-5.1 -7.7,-7.5 -9.2,-7.5 -1.4,0 -4.6,2 -7.7,5 -10.7,9.7 -24.2,14.3 -41.9,14.2 -16.2,-0.1 -28,-4.3 -35.5,-12.9 -3.8,-4.3 -8.6,-14.1 -9.6,-19.6 l -0.6,-3.7 h 62.3 c 34.3,0 63,-0.4 63.7,-0.9 3.3,-2.1 4.1,-16.6 1.7,-32.4 -5.7,-37.8 -28.3,-63.2 -63.8,-71.7 -6.3,-1.5 -11.5,-2 -22.7,-1.9 -8,0 -14.9,0.2 -15.5,0.4 z m 26.7,38.6 c 7.3,1.5 16.3,6.5 20.5,11.3 3.9,4.4 7.9,12.3 8.9,17.4 l 0.7,3.2 h -81.5 l 0.7,-3.2 c 3,-13.5 14.6,-24.8 29,-28.4 6.4,-1.6 15,-1.7 21.7,-0.3 z M 611,86.4 c -35.5,7.9 -59.5,32.9 -67,69.8 -4.5,21.8 -2,47.2 6.5,65.4 11.6,25.2 32.7,41.5 61.5,47.4 9.1,1.9 12.7,2.1 27,1.7 12.1,-0.4 18.6,-1.1 24.2,-2.6 17.1,-4.5 32.1,-12.7 43.6,-23.7 8.8,-8.5 8.8,-8.9 -0.7,-16.8 -4.4,-3.6 -10.3,-9.3 -13.1,-12.6 -6.5,-7.5 -8.2,-7.6 -15.5,-1 -10.9,9.9 -23.9,14.3 -42,14.2 -25.4,-0.1 -40.2,-11 -45,-33 l -0.7,-2.595 h 126.7 c 4.3,-3.1 2.7,-35.905 -2.5,-51.105 -1,-3 -3.7,-9 -5.9,-13.2 C 696.4,105.9 677.7,92 651.7,86.5 643.4,84.7 618.9,84.7 611,86.4 Z m 31.2,37.7 c 6.8,1.5 13.8,5 18.8,9.5 4.2,3.9 11,16.2 11,20 v 2.4 h -81.2 l 0.7,-2.8 c 5.2,-21.4 27.2,-34.1 50.7,-29.1 z"
       id="path4" />
  </g>
</svg>
