<svg xmlns="http://www.w3.org/2000/svg" width="250" height="36" xml:space="preserve">
  <path fill="#EE3524" d="M62.613 31.251v-3.11h-1.178v-.418h2.846v.418h-1.183v3.11zm2.146-3.528h.858l.998 2.909 1.027-2.909h.802v3.528h-.48v-3.178l-1.157 3.178h-.465l-1.114-3.157v3.157h-.469z"/>
  <path d="M245 24.205c0 1.397-1.135 2.501-2.486 2.501s-2.497-1.104-2.497-2.501c0-1.398 1.166-2.491 2.497-2.491A2.492 2.492 0 0 1 245 24.205m-4.684 0c0 1.243.99 2.213 2.197 2.213s2.187-.985 2.187-2.213c0-1.176-.954-2.197-2.187-2.197a2.203 2.203 0 0 0-2.197 2.197m1.289-1.356h.938c.207 0 .919 0 .919.67 0 .078 0 .501-.506.65l.413.511.154.846h-.382l-.129-.701-.583-.517h-.464v1.218h-.361v-2.677zm.362 1.144h.577l.531-.407-.531-.423h-.577v.83zM78.115 9.752c3.771.165 7.54.315 11.313.454 5.021.191 6.813 1.599 6.215 4.101-.475 2.017-2.398 2.961-4.688 3.456l-.01.036c2.313.134 4.319 1.146 3.711 3.719-.269 1.166-.982 2.166-1.85 2.749-1.271.877-2.429 1.264-6.009 1.398-4.066.154-8.134.324-12.2.505 1.174-5.57 2.344-11.043 3.518-16.418m4.077 13.271c.691-.016 1.377-.041 2.065-.057 2.414-.062 3.412-.67 3.706-1.955.291-1.284-.449-1.856-2.857-1.846l-2.063.015c-.286 1.275-.564 2.559-.851 3.843m1.473-6.653 2.065.016c2.017.021 2.816-.64 3.048-1.661.248-1.083-.115-1.687-2.298-1.738-.681-.016-1.361-.031-2.045-.052-.257 1.145-.51 2.29-.77 3.435m33.09 6.37c-2.156 1.46-5.271 2.507-9.539 2.63-8.101.269-10.282-3.043-9.23-7.489.687-2.867 2.461-4.89 4.652-6.014 1.821-.938 4.019-1.48 8.286-1.361 8.104.231 10.285 3.321 9.232 7.375-.544 2.095-1.748 3.745-3.401 4.859m-6.628-9.062c-2.298-.042-4.304 1.264-5.028 4.203-.723 2.951.624 4.292 2.916 4.245 2.298-.041 4.305-1.393 5.026-4.245.72-2.847-.621-4.167-2.914-4.203m13.361-2.528c2.252.041 4.5.077 6.749.108v8.278h.072c1.764-2.765 3.528-5.499 5.292-8.206 2.6.03 5.199.057 7.788.077.289 2.697.567 5.395.852 8.093h.066c1.465-2.703 2.92-5.385 4.385-8.057 2.084.01 4.178.016 6.271.016a2909.814 2909.814 0 0 0-7.453 12.879c-2.935.016-5.864.036-8.789.067-.273-2.641-.552-5.287-.825-7.934h-.062a1042.9 1042.9 0 0 0-5.132 8.006c-2.95.036-5.908.088-8.861.139-.115-4.486-.237-8.973-.353-13.466m34.87.315c5.08 0 10.16-.021 15.246-.067-.253.913-.5 1.826-.748 2.734-2.749.01-5.509.021-8.258.025-.247.893-.495 1.784-.737 2.677 2.62-.005 5.235-.005 7.855-.01l-.743 2.729c-2.62-.006-5.24-.011-7.85-.011-.438 1.589-.872 3.178-1.311 4.766a1623.55 1623.55 0 0 0-6.979 0c1.173-4.281 2.349-8.557 3.525-12.843m19.079-.104c2.326-.021 4.652-.057 6.979-.088-.887 3.343-1.773 6.675-2.672 9.981 2.554.016 5.097.036 7.649.057-.283 1.088-.572 2.166-.861 3.249-4.874-.082-9.743-.145-14.617-.186 1.17-4.316 2.341-8.654 3.522-13.013m18.387-.283c5.303-.108 10.595-.237 15.887-.393l-.743 3.044c-3.043.051-6.086.098-9.14.139-.206.856-.423 1.707-.64 2.559 2.848-.011 5.705-.031 8.552-.047a191.1 191.1 0 0 1-.737 3.008c-2.853-.021-5.71-.036-8.557-.047l-.65 2.532c3.074.047 6.148.088 9.223.135-.248 1-.49 1.991-.737 2.981-5.323-.145-10.651-.269-15.975-.366 1.166-4.467 2.346-8.985 3.517-13.545m25.553 6.617a467.413 467.413 0 0 0-5.529-7.133c3.022-.093 6.055-.196 9.077-.305.897 1.547 1.785 3.11 2.672 4.693a237.026 237.026 0 0 0 4.993-4.987c2.857-.113 5.704-.237 8.562-.361a265.525 265.525 0 0 1-9.083 8.083 376.542 376.542 0 0 1 5.793 8.34c-3.033-.129-6.061-.253-9.089-.366a517.808 517.808 0 0 0-2.872-5.286 286.734 286.734 0 0 1-5.411 4.987c-2.795-.093-5.596-.186-8.396-.263a312.684 312.684 0 0 0 9.283-7.402"/>
  <path fill="#EE3524" d="M37.329 4.749C19.478 4.749 5 10.604 5 17.829c0 4.127 4.717 7.805 12.085 10.203 3.692-.475 8.5-1.166 11.969-1.944 3.734-.847 8.129-2.038 11.265-3.931 0 0-1.119-1.16-5.777-2.672-5.044-1.646-13.253-3.358-13.253-3.358s3.819-.252 4.49-.376c3.084-.253 8.178-.712 12.799-1.697 3.151-.676 6.855-1.743 9.432-3.12 0 0-.924-.949-5.223-2.177-4.681-1.341-10.774-2.466-10.774-2.466s7.004-.149 15.311 1.342c9.313 1.666 11.853 3.559 11.853 3.559s-8.071 4.178-19.942 5.003c-3.271.228-8.516.186-12.418.108 3.861.222 9.233.717 14.419 1.836 10.236 2.213 12.844 4.539 12.844 4.539s-11.139 5.179-25.13 6.365c-2.393.201-5 .237-7.458.196 4.681 1.067 10.084 1.671 15.84 1.671 17.859 0 32.329-5.854 32.329-13.081-.003-7.225-14.473-13.08-32.332-13.08"/>
</svg>
