<svg xmlns="http://www.w3.org/2000/svg" width="70" height="36" xml:space="preserve">
  <path fill="#EE3524" d="M62.613 31.251v-3.11h-1.178v-.418h2.846v.418h-1.183v3.11zm2.146-3.528h.858l.998 2.909 1.027-2.909h.802v3.528h-.48v-3.178l-1.157 3.178h-.465l-1.114-3.157v3.157h-.469z"/>
  <path fill="#EE3524" d="M37.329 4.749C19.478 4.749 5 10.604 5 17.829c0 4.127 4.717 7.805 12.085 10.203 3.692-.475 8.5-1.166 11.969-1.944 3.734-.847 8.129-2.038 11.265-3.931 0 0-1.119-1.16-5.777-2.672-5.044-1.646-13.253-3.358-13.253-3.358s3.819-.252 4.49-.376c3.084-.253 8.178-.712 12.799-1.697 3.151-.676 6.855-1.743 9.432-3.12 0 0-.924-.949-5.223-2.177-4.681-1.341-10.774-2.466-10.774-2.466s7.004-.149 15.311 1.342c9.313 1.666 11.853 3.559 11.853 3.559s-8.071 4.178-19.942 5.003c-3.271.228-8.516.186-12.418.108 3.861.222 9.233.717 14.419 1.836 10.236 2.213 12.844 4.539 12.844 4.539s-11.139 5.179-25.13 6.365c-2.393.201-5 .237-7.458.196 4.681 1.067 10.084 1.671 15.84 1.671 17.859 0 32.329-5.854 32.329-13.081-.003-7.225-14.473-13.08-32.332-13.08"/>
</svg>
