<?xml version="1.0" encoding="UTF-8" standalone="no"?>
<svg
   width="802.00006pt"
   height="801pt"
   viewBox="0 0 802.00006 801"
   version="1.2"
   id="svg632"
   xmlns="http://www.w3.org/2000/svg"
   xmlns:svg="http://www.w3.org/2000/svg">
  <defs
     id="defs636" />
  <g
     id="surface66021">
    <path
       style="fill:#199cd9;fill-opacity:1;fill-rule:nonzero;stroke:none"
       d="M 19.726562,22.117188 H 776.49219 V 778.88281 H 19.726562 Z m 0,0"
       id="path601" />
    <path
       style="fill:#ffffff;fill-opacity:1;fill-rule:nonzero;stroke:none"
       d="M 121.77734,471.08203 H 656.66406 L 551.29687,416.04687 Z m 0,0"
       id="path603" />
    <path
       style="fill:#ffffff;fill-opacity:1;fill-rule:nonzero;stroke:none"
       d="M 121.77734,465.96484 551.31641,396.41016 691.08984,268.26172 Z m 0,0"
       id="path605" />
    <path
       style="fill:#ffffff;fill-opacity:1;fill-rule:nonzero;stroke:none"
       d="M 121.77734,460.09766 389.21875,248.37109 h 299.38672 z m 0,0"
       id="path607" />
    <path
       style="fill:#ffffff;fill-opacity:1;fill-rule:nonzero;stroke:none"
       d="M 121.77734,453.375 344.09375,264.99609 230.25391,306.94531 Z m 0,0"
       id="path609" />
    <path
       style="fill:#ffffff;fill-opacity:1;fill-rule:nonzero;stroke:none"
       d="m 122.11719,494.73437 h 18.96484 l -7.90234,26.47657 h 0.52734 c 2.5,-3.7461 4.74219,-6.12891 7.11328,-8.9375 l 14.22266,-17.53907 h 21.07031 l -26.07422,25.71094 9.08594,31.67578 h -20.41406 l -3.82032,-22.73437 -5.39843,5.02344 -5.39844,17.71093 h -18.96484 z m 0,0"
       id="path611" />
    <path
       style="fill:#ffffff;fill-opacity:1;fill-rule:nonzero;stroke:none"
       d="m 200.21094,531.42969 0.79297,-11.75 c 0.26171,-3.15235 0.92187,-9.79297 1.18359,-14.04688 h -0.26172 c -1.97656,4.25391 -5.00781,11.06641 -6.58594,13.96094 l -6.32422,11.83594 z m -15.67188,9.10937 -6.45312,11.58203 h -18.83203 l 35.55859,-57.39062 h 22.91406 v 57.39062 h -18.83203 l 0.66016,-11.58203 z m 0,0"
       id="path613" />
    <path
       style="fill:#ffffff;fill-opacity:1;fill-rule:nonzero;stroke:none"
       d="m 231.6875,552.12109 6.1875,-20.94531 -8.29297,-36.44531 h 20.80859 l 0.92188,12.34765 c 0.52344,6.89844 0.26172,10.72657 0.12891,13.02735 h 0.26562 c 1.84375,-3.66016 3.81641,-7.66406 6.71484,-12.08985 l 8.69141,-13.28515 h 20.15234 l -30.16015,36.61328 -5.92578,20.77734 z m 0,0"
       id="path615" />
    <path
       style="fill:#ffffff;fill-opacity:1;fill-rule:nonzero;stroke:none"
       d="m 306.09766,531.42969 0.78906,-11.75 c 0.26562,-3.15235 0.92187,-9.79297 1.1875,-14.04688 h -0.26563 c -1.97265,4.25391 -5.0039,11.06641 -6.58203,13.96094 l -6.32422,11.83594 z m -15.67188,9.10937 -6.45312,11.58203 h -18.83204 l 35.5586,-57.39062 h 22.91406 v 57.39062 h -18.83203 l 0.65625,-11.58203 z m 0,0"
       id="path617" />
    <path
       style="fill:#ffffff;fill-opacity:1;fill-rule:nonzero;stroke:none"
       d="m 349.42578,494.73437 h 18.96484 l -7.90234,26.47657 h 0.52734 c 2.5,-3.7461 4.73829,-6.12891 7.10938,-8.9375 l 14.22266,-17.53907 h 21.07421 l -26.07812,25.71094 9.08984,31.67578 h -20.41406 l -3.82031,-22.73437 -5.39844,5.02344 -5.40234,17.71093 H 332.4375 Z m 0,0"
       id="path619" />
    <path
       style="fill:#ffffff;fill-opacity:1;fill-rule:nonzero;stroke:none"
       d="m 411.05859,494.73437 h 39.11328 l -3.42578,11.06641 h -19.22656 l -4.08203,12.94141 h 18.4375 l -3.16016,10.55859 h -18.17578 l -6.84765,22.82031 h -19.625 z m 0,0"
       id="path621" />
    <path
       style="fill:#ffffff;fill-opacity:1;fill-rule:nonzero;stroke:none"
       d="m 483.88672,494.73437 -16.99219,57.38672 h -19.48828 l 16.98828,-57.38672 z m 0,0"
       id="path623" />
    <path
       style="fill:#ffffff;fill-opacity:1;fill-rule:nonzero;stroke:none"
       d="m 511.01562,520.44531 h 3.29297 c 7.375,0 11.71875,-5.53515 11.71875,-10.64453 0,-2.38281 -1.44922,-5.61719 -6.58593,-5.61719 -1.57813,0 -3.02735,0.0859 -3.94922,0.25391 z m -11.72265,-24.86328 c 6.05859,-0.67969 12.90625,-1.10547 19.22656,-1.10547 7.90234,0 16.07031,0.85156 21.20313,4.08594 3.82031,2.38672 6.1914,5.78906 6.1914,9.70703 0,8.51563 -8.03515,15.07031 -17.77734,17.19922 v 0.25391 c 4.47656,1.44921 6.45312,4.42968 6.71484,10.39062 0.26172,5.70313 0.52735,13.79297 1.44922,16.00781 h -19.49219 c -0.39453,-1.53515 -0.65625,-7.49609 -0.52734,-13.53906 0.13281,-6.47266 -1.84375,-8.51562 -6.32031,-8.51562 h -2.10547 l -6.32422,22.05468 h -18.96484 z m 0,0"
       id="path625" />
    <path
       style="fill:#ffffff;fill-opacity:1;fill-rule:nonzero;stroke:none"
       d="m 548.80859,539.60156 c 3.03125,1.10938 7.64063,1.96094 12.37891,1.96094 6.19141,0.16797 11.32812,-1.875 11.32812,-5.79297 0,-3.48828 -3.16015,-5.27734 -8.6914,-8.68359 -7.11328,-4.33985 -10.40625,-8.9375 -10.40625,-13.79297 0,-11.41016 12.3789,-19.07031 30.6875,-19.07031 7.50781,0 11.85156,0.9375 13.96094,1.78515 l -5.13672,10.81641 c -2.63672,-0.85156 -5.53125,-1.53516 -9.48438,-1.53516 -6.1875,0 -10.66797,2.38672 -10.66797,6.30078 0,2.12891 0.92188,3.83203 8.5625,8.08985 7.76953,4.33984 10.66797,9.36718 10.66797,13.62109 0,12.51563 -13.30469,19.32813 -30.29297,19.32813 -9.875,0 -15.53906,-1.27735 -17.64843,-2.04297 z m 0,0"
       id="path627" />
    <path
       style="fill:#ffffff;fill-opacity:1;fill-rule:nonzero;stroke:none"
       d="m 618.21094,506.65234 h -15.27735 l 3.55469,-11.92187 h 49.91406 l -3.55468,11.92187 h -15.14454 l -13.5664,45.46875 h -19.49219 z m 0,0"
       id="path629" />
  </g>
</svg>
