<svg width="1069.333" height="1068" viewBox="0 0 802 801" version="1.2" xmlns="http://www.w3.org/2000/svg">
  <path style="fill:#199cd9;fill-opacity:1;fill-rule:nonzero;stroke:none" d="M19.727 22.117h756.765v756.766H19.727Zm0 0"/>
  <path style="fill:#fff;fill-opacity:1;fill-rule:nonzero;stroke:none" d="M121.777 471.082h534.887l-105.367-55.035Zm0-5.117 429.54-69.555L691.09 268.262Zm0-5.867L389.22 248.37h299.386zm0-6.723 222.317-188.379-113.84 41.95Zm.34 41.359h18.965l-7.902 26.477h.527c2.5-3.746 4.742-6.129 7.113-8.938l14.223-17.539h21.07l-26.074 25.711 9.086 31.676h-20.414l-3.82-22.734-5.399 5.023-5.398 17.711h-18.965zm78.093 36.696.794-11.75c.262-3.153.922-9.793 1.183-14.047h-.261c-1.977 4.254-5.008 11.066-6.586 13.96l-6.324 11.837zm-15.67 9.11-6.454 11.581h-18.832l35.559-57.39h22.914v57.39h-18.832l.66-11.582zm47.148 11.581 6.187-20.945-8.293-36.446h20.809l.922 12.348c.523 6.899.261 10.727.128 13.027h.266c1.844-3.66 3.816-7.664 6.715-12.09l8.691-13.285h20.153l-30.16 36.614-5.926 20.777zm74.41-20.691.789-11.75c.265-3.153.922-9.793 1.187-14.047h-.265c-1.973 4.254-5.004 11.066-6.582 13.96l-6.325 11.837zm-15.672 9.11-6.453 11.581H265.14l35.558-57.39h22.914v57.39H304.78l.657-11.582zm59-45.806h18.965l-7.903 26.477h.528c2.5-3.746 4.738-6.129 7.109-8.938l14.223-17.539h21.074l-26.078 25.711 9.09 31.676H366.02l-3.82-22.734-5.4 5.023-5.402 17.711h-18.96Zm61.633 0h39.113l-3.426 11.067H427.52l-4.082 12.941h18.437l-3.16 10.559h-18.176l-6.848 22.82h-19.625zm72.828 0-16.992 57.387h-19.489l16.989-57.387zm27.129 25.711h3.293c7.375 0 11.718-5.535 11.718-10.644 0-2.383-1.449-5.617-6.586-5.617-1.578 0-3.027.085-3.949.253zm-11.723-24.863c6.059-.68 12.906-1.105 19.227-1.105 7.902 0 16.07.851 21.203 4.085 3.82 2.387 6.191 5.79 6.191 9.708 0 8.515-8.035 15.07-17.777 17.199v.254c4.476 1.449 6.453 4.43 6.715 10.39.261 5.703.527 13.793 1.449 16.008h-19.492c-.395-1.535-.657-7.496-.528-13.539.133-6.473-1.843-8.516-6.32-8.516h-2.106l-6.324 22.055h-18.965zm49.516 44.02c3.03 1.109 7.64 1.96 12.379 1.96 6.19.168 11.328-1.875 11.328-5.792 0-3.489-3.16-5.278-8.692-8.684-7.113-4.34-10.406-8.938-10.406-13.793 0-11.41 12.379-19.07 30.687-19.07 7.508 0 11.852.937 13.961 1.785l-5.136 10.816c-2.637-.851-5.532-1.535-9.485-1.535-6.187 0-10.668 2.387-10.668 6.3 0 2.13.922 3.833 8.563 8.09 7.77 4.34 10.668 9.368 10.668 13.622 0 12.515-13.305 19.328-30.293 19.328-9.875 0-15.54-1.277-17.649-2.043zm69.401-32.95h-15.276l3.554-11.922h49.914l-3.554 11.922h-15.145l-13.566 45.47h-19.492zm0 0"/>
</svg>
