<?xml version="1.0" encoding="UTF-8" standalone="no"?>
<svg
   width="1754.4688pt"
   height="146.41797pt"
   viewBox="0 0 1754.4688 146.41797"
   version="1.2"
   id="svg53"
   xmlns="http://www.w3.org/2000/svg"
   xmlns:svg="http://www.w3.org/2000/svg">
  <defs
     id="defs57" />
  <path
     style="fill:#009cde;fill-opacity:1;fill-rule:nonzero;stroke:none"
     d="m 0,145.14062 h 345.5039 l -68.0625,-35.55078 z m 0,0"
     id="path4" />
  <path
     style="fill:#009cde;fill-opacity:1;fill-rule:nonzero;stroke:none"
     d="M 0,141.83203 277.45312,96.90625 367.74218,14.12891 Z m 0,0"
     id="path6" />
  <path
     style="fill:#009cde;fill-opacity:1;fill-rule:nonzero;stroke:none"
     d="M 0,138.04297 172.74999,1.28125 h 193.38282 z m 0,0"
     id="path8" />
  <path
     style="fill:#009cde;fill-opacity:1;fill-rule:nonzero;stroke:none"
     d="M 0,133.70312 143.60156,12.02344 70.070315,39.11719 Z m 0,0"
     id="path10" />
  <path
     style="fill:#009cde;fill-opacity:1;fill-rule:nonzero;stroke:none"
     d="m 415.10937,1.28125 h 47.54297 l -19.8086,66.37891 h 1.32032 C 450.43749,58.26953 456.05078,52.29297 461.99218,45.25 L 497.64453,1.28125 h 52.82812 l -65.37109,64.45703 22.78125,79.40234 h -51.17188 l -9.57422,-56.98828 -13.53515,12.58985 -13.53907,44.39843 h -47.53906 z m 0,0"
     id="path12" />
  <path
     style="fill:#009cde;fill-opacity:1;fill-rule:nonzero;stroke:none"
     d="m 610.8789,93.27344 1.98438,-29.45313 c 0.65625,-7.89844 2.30859,-24.54687 2.96875,-35.21875 h -0.66016 c -4.95313,10.67188 -12.54297,27.7461 -16.50391,35.00391 L 582.8164,93.27344 Z m -39.28516,22.83984 -16.17578,29.02734 H 508.20703 L 597.34374,1.28125 h 57.44532 v 143.85937 h -47.21094 l 1.65234,-29.02734 z m 0,0"
     id="path14" />
  <path
     style="fill:#009cde;fill-opacity:1;fill-rule:nonzero;stroke:none"
     d="M 689.78515,145.14062 705.30078,92.63281 684.5039,1.28125 h 52.16016 l 2.3125,30.94922 c 1.32031,17.28906 0.66015,26.89453 0.33203,32.65625 h 0.65625 c 4.62109,-9.17969 9.57422,-19.21094 16.83984,-30.3086 L 778.59374,1.28125 h 50.51172 l -75.60156,91.77734 -14.85937,52.08203 z m 0,0"
     id="path16" />
  <path
     style="fill:#009cde;fill-opacity:1;fill-rule:nonzero;stroke:none"
     d="m 876.3164,93.27344 1.98047,-29.45313 c 0.66016,-7.89844 2.3125,-24.54687 2.96875,-35.21875 h -0.65625 c -4.95313,10.67188 -12.54688,27.7461 -16.50781,35.00391 L 848.2539,93.27344 Z m -39.28516,22.83984 -16.17968,29.02734 H 773.64062 L 862.78124,1.28125 h 57.44533 v 143.85937 h -47.21095 l 1.64844,-29.02734 z m 0,0"
     id="path18" />
  <path
     style="fill:#009cde;fill-opacity:1;fill-rule:nonzero;stroke:none"
     d="m 984.92967,1.28125 h 47.53913 l -19.8047,66.37891 h 1.3203 c 6.2695,-9.39063 11.8828,-15.36719 17.8281,-22.41016 l 35.6524,-43.96875 h 52.8242 l -65.3672,64.45703 22.7773,79.40234 h -51.1718 l -9.5742,-56.98828 -13.5352,12.58985 -13.53913,44.39843 h -47.5351 z m 0,0"
     id="path20" />
  <path
     style="fill:#009cde;fill-opacity:1;fill-rule:nonzero;stroke:none"
     d="m 1139.4297,1.28125 h 98.0508 l -8.582,27.74609 h -48.1993 l -10.2343,32.44141 h 46.2187 l -7.9258,26.46875 h -45.5546 l -17.1719,57.20312 h -49.1914 z m 0,0"
     id="path22" />
  <path
     style="fill:#009cde;fill-opacity:1;fill-rule:nonzero;stroke:none"
     d="m 1321.9961,1.28125 -42.5898,143.85937 h -48.8594 L 1273.1367,1.28125 Z m 0,0"
     id="path24" />
  <path
     style="fill:#009cde;fill-opacity:1;fill-rule:nonzero;stroke:none"
     d="m 1390.0039,65.73828 h 8.2539 c 18.4883,0 29.3829,-13.87109 29.3829,-26.67578 0,-5.97656 -3.629,-14.08984 -16.5079,-14.08984 -3.9609,0 -7.5937,0.21484 -9.9062,0.64062 z M 1360.6211,3.41406 c 15.1875,-1.70703 32.3555,-2.77344 48.1992,-2.77344 19.8125,0 40.2813,2.13672 53.1563,10.2461 9.5742,5.97656 15.5156,14.51562 15.5156,24.33203 0,21.34375 -20.1406,37.77734 -44.5703,43.11328 v 0.64063 c 11.2266,3.6289 16.1797,11.09765 16.8398,26.03906 0.6602,14.30078 1.3204,34.57812 3.629,40.1289 h -48.8594 c -0.9922,-3.84375 -1.6485,-18.78515 -1.3203,-33.9375 0.3281,-16.22265 -4.6211,-21.34375 -15.8477,-21.34375 h -5.2812 l -15.8477,55.28125 h -47.5391 z m 0,0"
     id="path26" />
  <path
     style="fill:#009cde;fill-opacity:1;fill-rule:nonzero;stroke:none"
     d="m 1484.75,113.76562 c 7.5938,2.77344 19.1485,4.90625 31.0313,4.90625 15.5195,0.42579 28.3945,-4.69531 28.3945,-14.51171 0,-8.75 -7.9258,-13.23438 -21.7891,-21.77344 -17.8281,-10.88281 -26.082,-22.41016 -26.082,-34.57813 C 1496.3047,19.21094 1527.3399,0 1573.2305,0 c 18.8164,0 29.7109,2.34766 34.9922,4.48047 l -12.875,27.10937 c -6.6016,-2.13281 -13.8672,-3.84375 -23.7695,-3.84375 -15.5157,0 -26.7422,5.97657 -26.7422,15.79688 0,5.33594 2.3125,9.60547 21.4609,20.27734 19.4766,10.88281 26.7383,23.47656 26.7383,34.14844 0,31.375 -33.3438,48.44922 -75.9297,48.44922 -24.7617,0 -38.957,-3.19922 -44.2422,-5.1211 z m 0,0"
     id="path28" />
  <path
     style="fill:#009cde;fill-opacity:1;fill-rule:nonzero;stroke:none"
     d="m 1658.7266,31.16406 h -38.2969 l 8.9141,-29.88281 h 125.125 l -8.9141,29.88281 h -37.9648 l -34.0078,113.97656 h -48.8594 z m 0,0"
     id="path30" />
</svg>
