<svg width="2339.292" height="195.224" viewBox="0 0 1754.469 146.418" version="1.2" xmlns="http://www.w3.org/2000/svg">
  <path style="fill:#009cde;fill-opacity:1;fill-rule:nonzero;stroke:none" d="M0 145.14h345.504l-68.063-35.55zm0-3.308 277.453-44.926 90.29-82.777Zm0-3.789L172.75 1.281h193.383zm0-4.34 143.602-121.68L70.07 39.117ZM415.11 1.281h47.542l-19.808 66.38h1.32c6.273-9.391 11.887-15.368 17.828-22.411l35.653-43.969h52.828l-65.371 64.457 22.78 79.403h-51.171l-9.574-56.989-13.535 12.59-13.54 44.399h-47.539zm195.769 91.992 1.984-29.453c.657-7.898 2.309-24.547 2.969-35.218h-.66c-4.953 10.671-12.543 27.746-16.504 35.003l-15.852 29.668Zm-39.285 22.84-16.176 29.028h-47.211L597.344 1.28h57.445v143.86h-47.21l1.651-29.028zm118.191 29.027 15.516-52.507L684.504 1.28h52.16l2.313 30.95c1.32 17.289.66 26.894.332 32.656h.656c4.62-9.18 9.574-19.211 16.84-30.309L778.594 1.28h50.511l-75.601 91.78-14.86 52.082zm186.531-51.867 1.98-29.453c.661-7.898 2.313-24.547 2.97-35.218h-.657c-4.953 10.671-12.547 27.746-16.507 35.003l-15.848 29.668Zm-39.285 22.84-16.18 29.028h-47.21L862.78 1.28h57.446v143.86h-47.211l1.648-29.028zM984.93 1.281h47.539l-19.805 66.38h1.32c6.27-9.391 11.883-15.368 17.829-22.411l35.652-43.969h52.824l-65.367 64.457 22.777 79.403h-51.172l-9.574-56.989-13.535 12.59-13.54 44.399h-47.534zm154.5 0h98.05l-8.582 27.746H1180.7l-10.234 32.442h46.219l-7.926 26.468h-45.555l-17.172 57.204h-49.191zm182.566 0-42.59 143.86h-48.86l42.59-143.86Zm68.008 64.457h8.254c18.488 0 29.383-13.87 29.383-26.675 0-5.977-3.63-14.09-16.508-14.09-3.961 0-7.594.214-9.906.64zM1360.62 3.414c15.188-1.707 32.356-2.773 48.2-2.773 19.812 0 40.28 2.136 53.156 10.246 9.574 5.976 15.515 14.515 15.515 24.332 0 21.343-20.14 37.777-44.57 43.113v.64c11.227 3.63 16.18 11.098 16.84 26.04.66 14.3 1.32 34.578 3.629 40.129h-48.86c-.992-3.844-1.648-18.786-1.32-33.938.328-16.223-4.621-21.344-15.848-21.344h-5.28l-15.849 55.282h-47.539zm124.13 110.352c7.594 2.773 19.148 4.906 31.031 4.906 15.52.426 28.395-4.695 28.395-14.512 0-8.75-7.926-13.234-21.79-21.773-17.827-10.883-26.081-22.41-26.081-34.578C1496.305 19.21 1527.34 0 1573.23 0c18.817 0 29.711 2.348 34.993 4.48l-12.875 27.11c-6.602-2.133-13.868-3.844-23.77-3.844-15.516 0-26.742 5.977-26.742 15.797 0 5.336 2.312 9.605 21.46 20.277 19.477 10.883 26.74 23.477 26.74 34.149 0 31.375-33.345 48.449-75.93 48.449-24.762 0-38.958-3.2-44.243-5.121zm173.977-82.602h-38.297l8.914-29.883h125.125l-8.914 29.883h-37.965l-34.008 113.977h-48.86zm0 0"/>
</svg>
