<?xml version="1.0" encoding="UTF-8" standalone="no"?>
<!-- Generator: Adobe Illustrator 19.2.1, SVG Export Plug-In . SVG Version: 6.00 Build 0)  -->

<svg
   version="1.1"
   id="layer"
   x="0px"
   y="0px"
   viewBox="0 0 600.09998 84.5"
   xml:space="preserve"
   sodipodi:docname="stages-cycling-vector-logo-crop.svg"
   width="600.09998"
   height="84.5"
   inkscape:version="1.2.1 (9c6d41e410, 2022-07-14)"
   xmlns:inkscape="http://www.inkscape.org/namespaces/inkscape"
   xmlns:sodipodi="http://sodipodi.sourceforge.net/DTD/sodipodi-0.dtd"
   xmlns="http://www.w3.org/2000/svg"
   xmlns:svg="http://www.w3.org/2000/svg"><defs
   id="defs45" /><sodipodi:namedview
   id="namedview43"
   pagecolor="#ffffff"
   bordercolor="#666666"
   borderopacity="1.0"
   inkscape:showpageshadow="2"
   inkscape:pageopacity="0.0"
   inkscape:pagecheckerboard="0"
   inkscape:deskcolor="#d1d1d1"
   showgrid="false"
   inkscape:zoom="1.2929448"
   inkscape:cx="305.89087"
   inkscape:cy="46.01898"
   inkscape:window-width="1920"
   inkscape:window-height="1025"
   inkscape:window-x="0"
   inkscape:window-y="31"
   inkscape:window-maximized="1"
   inkscape:current-layer="layer" />
<style
   type="text/css"
   id="style2">
	.st0{fill:#0060AB;}
	.st1{fill:#191419;}
</style>
<g
   id="g40"
   transform="translate(-20,-280.5)">
	<path
   class="st0"
   d="M 135.7,300.2 H 89.8 c -4.9,0 -9.3,0.9 -13.3,2.7 -4,1.8 -7.4,5.1 -10.2,9.8 H 71 c 1.6,-2.2 3.5,-4.2 5.8,-5.8 8.6,-5.6 19.9,-3.4 24.4,3.5 0.4,0.7 0.7,1.5 1,2.2 h 29.4 l -3.1,8.8 c -4.4,12.4 -10.8,22.1 -19.3,29.1 -8.5,7 -19,10.5 -31.5,10.5 h -6.3 l -0.6,1.6 h 13.8 c 14.7,0 27.2,-4.6 37.6,-13.7 10.3,-9.1 18.3,-21.7 24,-37.9 l 3.9,-11"
   id="path4" />
	<path
   class="st1"
   d="m 97.5,313.3 -3.9,3.4 c -1.8,-2.5 -4.1,-3.8 -6.8,-3.8 -2.3,0 -4.5,0.9 -6.4,2.6 -1.9,1.7 -3.1,3.9 -3.5,6.4 -0.3,1.8 -0.2,3.3 0.3,4.7 0.5,1.4 1.3,2.4 2.5,3.2 1.2,0.8 2.6,1.2 4.1,1.2 1.4,0 2.6,-0.3 3.9,-0.8 1.2,-0.5 2.6,-1.6 4.2,-3 l 2.6,3.6 c -2.2,1.9 -4.1,3.2 -5.8,4 -1.7,0.7 -3.7,1.1 -5.7,1.1 -3.8,0 -6.7,-1.3 -8.7,-3.9 -2,-2.6 -2.6,-6 -1.9,-10.1 0.5,-2.6 1.4,-5 2.9,-7.1 1.5,-2 3.3,-3.7 5.6,-5 2.3,-1.2 4.6,-1.9 7,-1.9 2,0 3.9,0.4 5.6,1.4 1.5,1 2.9,2.3 4,4"
   id="path6" />
	<path
   class="st1"
   d="m 213.6,295.2 c -3.6,0 -6.9,0.6 -9.6,1.9 -2.8,1.3 -4.9,3.6 -6.4,6.9 h 48.7 l -1.3,7.3 c -1.6,9.2 -5.1,16.4 -10.5,21.7 -5.4,5.2 -12.7,7.8 -21.9,7.8 h -37.7 l 2.4,-13.8 h 34.4 c 3.7,0 6.8,-0.7 9.6,-2 2.7,-1.4 4.8,-3.8 6.3,-7.3 H 179 l 1.2,-6.7 c 1.6,-9.2 5.1,-16.4 10.5,-21.7 5.4,-5.2 12.7,-7.8 22,-7.8 h 37.6 l -2.4,13.8"
   id="path8" />
	<polyline
   class="st1"
   points="294.7,294.7 286.6,340.7 271.1,340.7 279.3,294.7 258.1,294.7 260.5,281.3 318.6,281.3 316.3,294.7     "
   id="polyline10" />
	<path
   class="st1"
   d="m 412,310.8 c -0.6,3.4 -0.8,6.2 -0.7,8.4 0.1,2.2 0.6,4 1.6,5.3 0.9,1.3 2.3,2.2 4.2,2.7 1.8,0.5 4.2,0.7 7,0.7 h 18.6 l 1.7,-9.8 h -12 l 2.5,-13.9 h 27.7 l -6.4,36.5 H 418 c -3.9,0 -7.4,-0.5 -10.5,-1.5 -3.1,-1 -5.6,-2.7 -7.6,-5.1 -1.9,-2.4 -3.2,-5.4 -3.9,-9.2 -0.7,-3.8 -0.5,-8.5 0.5,-14 1.6,-9.2 5.1,-16.4 10.5,-21.7 5.4,-5.2 12.8,-7.8 22,-7.8 h 37.5 l -2.4,13.8 h -34.2 c -2.3,0 -4.4,0.2 -6.3,0.7 -1.9,0.5 -3.7,1.3 -5.2,2.4 -1.5,1.2 -2.8,2.8 -3.9,4.8 -1.1,2 -1.9,4.6 -2.5,7.7"
   id="path12" />
	<path
   class="st1"
   d="m 525,340.7 h -35.8 c -4.2,0 -7.6,-0.7 -10.3,-2 -2.7,-1.4 -4.7,-3.3 -6.1,-5.9 -1.4,-2.6 -2.1,-5.7 -2.3,-9.4 -0.2,-3.7 0.2,-7.9 1,-12.6 1.6,-9.2 4.7,-16.4 9.2,-21.7 4.5,-5.2 10.5,-7.8 18,-7.8 h 36.8 l -2.4,13.3 h -31.4 c -2.1,0 -4,0.2 -5.5,0.7 -1.5,0.5 -2.8,1.2 -3.8,2 -1,0.8 -1.9,1.8 -2.5,3 -0.6,1.2 -1.1,2.4 -1.4,3.8 h 42.9 l -2.4,13.5 h -42.9 c -0.8,6.2 2.5,9.4 9.9,9.4 h 31.4"
   id="path14" />
	<path
   class="st1"
   d="m 574,294.8 c -3.6,0 -6.8,0.6 -9.6,1.9 -2.8,1.3 -4.9,3.5 -6.4,6.9 h 48.7 l -1.3,7.3 c -1.6,9.2 -5.1,16.4 -10.5,21.7 -5.4,5.2 -12.7,7.8 -21.9,7.8 h -37.7 l 2.4,-13.8 H 572 c 3.6,0 6.8,-0.7 9.6,-2 2.7,-1.3 4.8,-3.8 6.3,-7.3 h -48.6 l 1.2,-6.7 c 1.6,-9.2 5.1,-16.4 10.5,-21.6 5.4,-5.2 12.7,-7.8 22,-7.8 h 37.6 l -2.4,13.8"
   id="path16" />
	<path
   class="st1"
   d="m 351.9,281.3 c -2.9,0 -5.6,0.6 -8.3,1.8 -3.1,1.1 -5.9,3 -8.2,5.4 -0.2,0.2 -0.5,0.4 -0.7,0.7 -2.4,2.3 -4.4,4.9 -6.1,7.9 -1.6,2.9 -2.7,5.9 -3.3,8.9 l -6.5,34.8 h 15.3 l 1.9,-10.2 2.4,-12.5 h 31.3 l -2.2,12.5 -1.9,10.2 h 15.7 l 11.1,-59.3 m -48.6,19.2 c 0.3,-0.6 0.7,-1.1 1.1,-1.6 0.3,-0.3 0.6,-0.5 0.9,-0.8 0.8,-0.7 1.7,-1.3 2.7,-1.9 0.5,-0.3 1.1,-0.5 1.7,-0.7 1.5,-0.5 3.3,-0.7 5.5,-0.7 H 374 l -1.8,9.6 h -29.9 c 0.3,-1.5 0.8,-2.8 1.5,-3.9"
   id="path18" />
	<path
   class="st1"
   d="m 189.7,349.6 -2.8,2.3 c -1.3,-1.7 -3,-2.6 -5,-2.6 -1.7,0 -3.3,0.6 -4.7,1.8 -1.4,1.2 -2.2,2.6 -2.5,4.4 -0.2,1.2 -0.1,2.3 0.2,3.2 0.4,0.9 1,1.7 1.8,2.2 0.9,0.5 1.9,0.8 3.1,0.8 1,0 1.9,-0.2 2.8,-0.6 0.9,-0.4 1.9,-1 3.1,-2 l 1.9,2.4 c -1.6,1.3 -3,2.2 -4.2,2.7 -1.3,0.5 -2.7,0.8 -4.2,0.8 -2.8,0 -4.9,-0.9 -6.4,-2.7 -1.5,-1.8 -2,-4.1 -1.5,-6.8 0.3,-1.8 1,-3.4 2.1,-4.8 1.1,-1.4 2.4,-2.5 4.1,-3.4 1.7,-0.8 3.4,-1.3 5.1,-1.3 1.5,0 2.9,0.3 4.1,0.9 1.2,0.7 2.2,1.6 3,2.7"
   id="path20" />
	<polyline
   class="st1"
   points="242.2,346 245.9,346 248.1,352.5 252.6,346 256.3,346 249.2,356.2 247.8,364 244.3,364 245.7,356.2     "
   id="polyline22" />
	<path
   class="st1"
   d="m 325,349.6 -2.8,2.3 c -1.3,-1.7 -3,-2.6 -5,-2.6 -1.7,0 -3.3,0.6 -4.7,1.8 -1.4,1.2 -2.2,2.6 -2.5,4.4 -0.2,1.2 -0.1,2.3 0.2,3.2 0.4,0.9 1,1.7 1.8,2.2 0.9,0.5 1.9,0.8 3,0.8 1,0 2,-0.2 2.8,-0.6 0.9,-0.4 1.9,-1 3.1,-2 l 1.9,2.4 c -1.6,1.3 -3,2.2 -4.2,2.7 -1.3,0.5 -2.7,0.8 -4.2,0.8 -2.8,0 -4.9,-0.9 -6.4,-2.7 -1.5,-1.8 -2,-4.1 -1.5,-6.8 0.3,-1.8 1,-3.4 2.1,-4.8 1.1,-1.4 2.4,-2.5 4.1,-3.4 1.7,-0.8 3.4,-1.3 5.1,-1.3 1.5,0 2.9,0.3 4.1,0.9 1.3,0.7 2.3,1.6 3.1,2.7"
   id="path24" />
	<polyline
   class="st1"
   points="380.3,346 383.8,346 381.2,360.8 386.2,360.8 385.6,364 377.2,364  "
   id="polyline26" />
	<polyline
   class="st1"
   points="450.5,346 453.9,346 450.7,364 447.3,364  "
   id="polyline28" />
	<polyline
   class="st1"
   points="512.6,346 515.9,346 521.5,357.9 523.6,346 527.1,346 523.9,364 520.6,364 515,352.2 512.9,364    509.5,364  "
   id="polyline30" />
	<path
   class="st1"
   d="m 595,349.4 -2.8,2.4 c -1.2,-1.6 -2.9,-2.4 -4.9,-2.4 -1.8,0 -3.4,0.6 -4.8,1.8 -1.4,1.2 -2.3,2.6 -2.6,4.3 -0.3,1.7 0.1,3.2 1.1,4.4 1,1.2 2.5,1.8 4.3,1.8 1.2,0 2.2,-0.2 3.1,-0.8 0.9,-0.5 1.7,-1.3 2.4,-2.3 h -5.2 l 0.6,-3.2 h 9.1 l -0.1,0.8 c -0.3,1.6 -0.9,3.1 -2,4.5 -1.1,1.4 -2.3,2.5 -3.7,3.2 -1.4,0.7 -3,1.1 -4.8,1.1 -1.9,0 -3.5,-0.4 -4.8,-1.2 -1.3,-0.8 -2.3,-2 -2.9,-3.5 -0.6,-1.5 -0.7,-3.1 -0.4,-4.9 0.4,-2.4 1.6,-4.5 3.5,-6.2 2.2,-2.1 4.9,-3.1 7.9,-3.1 1.6,0 3,0.3 4.3,0.9 0.8,0.4 1.8,1.2 2.7,2.4"
   id="path32" />
	<path
   class="st0"
   d="m 34.5,343 h 45.9 c 4.9,0 9.3,-0.9 13.3,-2.7 4,-1.8 7.4,-5.1 10.2,-9.8 h -4.7 c -1.6,2.2 -3.5,4.2 -5.8,5.8 -8.6,5.7 -19.9,3.4 -24.4,-3.5 -0.4,-0.7 -0.7,-1.5 -1,-2.3 H 38.6 l 3.1,-8.8 c 4.4,-12.4 10.8,-22.1 19.3,-29.1 8.5,-7 19,-10.5 31.5,-10.5 h 6.3 l 0.6,-1.6 H 85.5 c -14.7,0 -27.2,4.6 -37.6,13.7 -10.3,9.1 -18.3,21.7 -24,37.9 l -3.9,11"
   id="path34" />
	<path
   class="st1"
   d="m 616.5,280.9 c 0.6,0 1.2,0.2 1.8,0.5 0.6,0.3 1,0.8 1.3,1.4 0.3,0.6 0.5,1.2 0.5,1.9 0,0.7 -0.2,1.3 -0.5,1.9 -0.3,0.6 -0.8,1 -1.3,1.4 -0.6,0.3 -1.2,0.5 -1.8,0.5 -0.6,0 -1.2,-0.2 -1.8,-0.5 -0.6,-0.3 -1,-0.8 -1.3,-1.4 -0.3,-0.6 -0.5,-1.2 -0.5,-1.9 0,-0.7 0.2,-1.3 0.5,-1.9 0.3,-0.6 0.8,-1 1.3,-1.4 0.5,-0.3 1.1,-0.5 1.8,-0.5 m 0,0.5 c -0.5,0 -1.1,0.1 -1.5,0.4 -0.5,0.3 -0.9,0.7 -1.1,1.2 -0.3,0.5 -0.4,1 -0.4,1.6 0,0.6 0.1,1.1 0.4,1.6 0.3,0.5 0.7,0.9 1.1,1.2 0.5,0.3 1,0.4 1.5,0.4 0.6,0 1.1,-0.1 1.6,-0.4 0.5,-0.3 0.9,-0.7 1.1,-1.2 0.3,-0.5 0.4,-1 0.4,-1.6 0,-0.6 -0.1,-1.1 -0.4,-1.6 -0.3,-0.5 -0.7,-0.9 -1.1,-1.2 -0.5,-0.2 -1.1,-0.4 -1.6,-0.4 m -1.7,1.2 v -0.3 h 1.7 c 0.5,0 0.9,0.1 1.1,0.3 0.2,0.2 0.3,0.5 0.3,0.8 0,0.3 -0.1,0.5 -0.2,0.7 -0.2,0.2 -0.4,0.3 -0.7,0.4 0.2,0.1 0.4,0.4 0.6,0.9 0.2,0.4 0.3,0.7 0.4,0.8 0.1,0.1 0.2,0.1 0.4,0.1 v 0.3 h -0.5 c -0.2,0 -0.3,-0.1 -0.4,-0.2 -0.1,-0.1 -0.2,-0.4 -0.4,-0.8 -0.2,-0.5 -0.3,-0.7 -0.4,-0.8 -0.1,-0.1 -0.3,-0.1 -0.5,-0.1 H 616 v 1.3 c 0,0.2 0,0.3 0,0.3 0,0 0.1,0.1 0.2,0.1 h 0.3 v 0.3 h -1.6 v -0.3 h 0.2 c 0.2,0 0.3,0 0.3,-0.1 0,0 0,-0.1 0,-0.3 v -3 c 0,-0.2 0,-0.3 0,-0.3 -0.2,-0.1 -0.4,-0.1 -0.6,-0.1 m 1.1,1.7 h 0.2 c 0.5,0 0.8,-0.1 1,-0.2 0.2,-0.2 0.3,-0.4 0.3,-0.7 0,-0.3 -0.1,-0.5 -0.2,-0.6 -0.2,-0.1 -0.4,-0.2 -0.8,-0.2 -0.2,0 -0.3,0 -0.4,0.1 0,0 -0.1,0.1 -0.1,0.2 z"
   id="path36" />
	<path
   class="st0"
   d="m 154.1,299.9 c 0.5,0 1,0.1 1.5,0.4 0.5,0.3 0.8,0.6 1.1,1.1 0.3,0.5 0.4,1 0.4,1.5 0,0.5 -0.1,1 -0.4,1.5 -0.3,0.5 -0.6,0.8 -1.1,1.1 -0.5,0.3 -0.9,0.4 -1.5,0.4 -0.5,0 -1,-0.1 -1.5,-0.4 -0.5,-0.3 -0.8,-0.6 -1.1,-1.1 -0.3,-0.5 -0.4,-1 -0.4,-1.5 0,-0.5 0.1,-1 0.4,-1.5 0.3,-0.5 0.6,-0.8 1.1,-1.1 0.5,-0.3 1,-0.4 1.5,-0.4 m 0,0.4 c -0.4,0 -0.9,0.1 -1.3,0.4 -0.4,0.2 -0.7,0.6 -0.9,1 -0.2,0.4 -0.3,0.8 -0.3,1.3 0,0.5 0.1,0.9 0.3,1.3 0.2,0.4 0.5,0.7 0.9,1 0.4,0.2 0.8,0.4 1.3,0.4 0.5,0 0.9,-0.1 1.3,-0.4 0.4,-0.2 0.7,-0.6 0.9,-1 0.2,-0.4 0.3,-0.8 0.3,-1.3 0,-0.5 -0.1,-0.9 -0.3,-1.3 -0.2,-0.4 -0.5,-0.7 -0.9,-1 -0.4,-0.3 -0.8,-0.4 -1.3,-0.4 m -1.3,1 V 301 h 1.4 c 0.4,0 0.7,0.1 0.9,0.2 0.2,0.2 0.3,0.4 0.3,0.6 0,0.2 -0.1,0.4 -0.2,0.6 -0.1,0.2 -0.3,0.3 -0.6,0.3 0.2,0.1 0.3,0.3 0.5,0.7 0.2,0.4 0.3,0.6 0.3,0.6 0.1,0.1 0.2,0.1 0.4,0.1 v 0.2 h -0.4 c -0.1,0 -0.3,0 -0.3,-0.1 -0.1,-0.1 -0.2,-0.3 -0.3,-0.7 -0.1,-0.4 -0.3,-0.6 -0.3,-0.7 -0.1,-0.1 -0.2,-0.1 -0.4,-0.1 h -0.2 v 1 c 0,0.1 0,0.2 0,0.2 0,0 0.1,0 0.1,0.1 h 0.2 v 0.2 h -1.3 V 304 h 0.1 c 0.1,0 0.2,0 0.2,0 0,0 0,-0.1 0,-0.2 v -2.5 c 0,-0.1 0,-0.2 0,-0.2 -0.1,0.2 -0.2,0.2 -0.4,0.2 m 0.8,1.4 h 0.2 c 0.4,0 0.7,-0.1 0.8,-0.2 0.2,-0.1 0.2,-0.3 0.2,-0.5 0,-0.2 -0.1,-0.4 -0.2,-0.5 -0.1,-0.1 -0.4,-0.2 -0.7,-0.2 -0.2,0 -0.3,0 -0.3,0 0,0 -0.1,0.1 -0.1,0.2 v 1.2 z"
   id="path38" />
</g>
</svg>
