<?xml version="1.0" encoding="UTF-8" standalone="no"?>
<!-- Generator: Adobe Illustrator 19.2.1, SVG Export Plug-In . SVG Version: 6.00 Build 0)  -->

<svg
   version="1.1"
   id="layer"
   x="0px"
   y="0px"
   viewBox="0 0 137.10001 82.099998"
   xml:space="preserve"
   sodipodi:docname="stages-logo.svg"
   width="137.10001"
   height="82.099998"
   inkscape:version="1.2.1 (9c6d41e410, 2022-07-14)"
   xmlns:inkscape="http://www.inkscape.org/namespaces/inkscape"
   xmlns:sodipodi="http://sodipodi.sourceforge.net/DTD/sodipodi-0.dtd"
   xmlns="http://www.w3.org/2000/svg"
   xmlns:svg="http://www.w3.org/2000/svg"><defs
   id="defs45" /><sodipodi:namedview
   id="namedview43"
   pagecolor="#ffffff"
   bordercolor="#666666"
   borderopacity="1.0"
   inkscape:showpageshadow="2"
   inkscape:pageopacity="0.0"
   inkscape:pagecheckerboard="0"
   inkscape:deskcolor="#d1d1d1"
   showgrid="false"
   inkscape:zoom="1.2929448"
   inkscape:cx="305.89087"
   inkscape:cy="46.01898"
   inkscape:window-width="1920"
   inkscape:window-height="1025"
   inkscape:window-x="0"
   inkscape:window-y="31"
   inkscape:window-maximized="1"
   inkscape:current-layer="layer" />
<style
   type="text/css"
   id="style2">
	.st0{fill:#0060AB;}
	.st1{fill:#191419;}
</style>
<path
   class="st0"
   d="M 115.7,19.7 H 69.8 c -4.9,0 -9.3,0.9 -13.3,2.7 -4,1.8 -7.4,5.1 -10.2,9.8 H 51 c 1.6,-2.2 3.5,-4.2 5.8,-5.8 8.6,-5.6 19.9,-3.4 24.4,3.5 0.4,0.7 0.7,1.5 1,2.2 h 29.4 l -3.1,8.8 C 104.1,53.3 97.7,63 89.2,70 80.7,77 70.2,80.5 57.7,80.5 h -6.3 l -0.6,1.6 h 13.8 c 14.7,0 27.2,-4.6 37.6,-13.7 10.3,-9.1 18.3,-21.7 24,-37.9 l 3.9,-11"
   id="path4" /><path
   class="st1"
   d="m 77.5,32.8 -3.9,3.4 c -1.8,-2.5 -4.1,-3.8 -6.8,-3.8 -2.3,0 -4.5,0.9 -6.4,2.6 -1.9,1.7 -3.1,3.9 -3.5,6.4 -0.3,1.8 -0.2,3.3 0.3,4.7 0.5,1.4 1.3,2.4 2.5,3.2 1.2,0.8 2.6,1.2 4.1,1.2 1.4,0 2.6,-0.3 3.9,-0.8 1.2,-0.5 2.6,-1.6 4.2,-3 l 2.6,3.6 c -2.2,1.9 -4.1,3.2 -5.8,4 C 67,55 65,55.4 63,55.4 c -3.8,0 -6.7,-1.3 -8.7,-3.9 -2,-2.6 -2.6,-6 -1.9,-10.1 0.5,-2.6 1.4,-5 2.9,-7.1 1.5,-2 3.3,-3.7 5.6,-5 2.3,-1.2 4.6,-1.9 7,-1.9 2,0 3.9,0.4 5.6,1.4 1.5,1 2.9,2.3 4,4"
   id="path6" /><path
   class="st0"
   d="m 14.5,62.5 h 45.9 c 4.9,0 9.3,-0.9 13.3,-2.7 4,-1.8 7.4,-5.1 10.2,-9.8 h -4.7 c -1.6,2.2 -3.5,4.2 -5.8,5.8 C 64.8,61.5 53.5,59.2 49,52.3 48.6,51.6 48.3,50.8 48,50 H 18.6 l 3.1,-8.8 C 26.1,28.8 32.5,19.1 41,12.1 49.5,5.1 60,1.6 72.5,1.6 h 6.3 L 79.4,0 H 65.5 C 50.8,0 38.3,4.6 27.9,13.7 17.6,22.8 9.6,35.4 3.9,51.6 L 0,62.6"
   id="path34" /><path
   class="st0"
   d="m 134.1,19.4 c 0.5,0 1,0.1 1.5,0.4 0.5,0.3 0.8,0.6 1.1,1.1 0.3,0.5 0.4,1 0.4,1.5 0,0.5 -0.1,1 -0.4,1.5 -0.3,0.5 -0.6,0.8 -1.1,1.1 -0.5,0.3 -0.9,0.4 -1.5,0.4 -0.5,0 -1,-0.1 -1.5,-0.4 -0.5,-0.3 -0.8,-0.6 -1.1,-1.1 -0.3,-0.5 -0.4,-1 -0.4,-1.5 0,-0.5 0.1,-1 0.4,-1.5 0.3,-0.5 0.6,-0.8 1.1,-1.1 0.5,-0.3 1,-0.4 1.5,-0.4 m 0,0.4 c -0.4,0 -0.9,0.1 -1.3,0.4 -0.4,0.2 -0.7,0.6 -0.9,1 -0.2,0.4 -0.3,0.8 -0.3,1.3 0,0.5 0.1,0.9 0.3,1.3 0.2,0.4 0.5,0.7 0.9,1 0.4,0.2 0.8,0.4 1.3,0.4 0.5,0 0.9,-0.1 1.3,-0.4 0.4,-0.2 0.7,-0.6 0.9,-1 0.2,-0.4 0.3,-0.8 0.3,-1.3 0,-0.5 -0.1,-0.9 -0.3,-1.3 -0.2,-0.4 -0.5,-0.7 -0.9,-1 -0.4,-0.3 -0.8,-0.4 -1.3,-0.4 m -1.3,1 v -0.3 h 1.4 c 0.4,0 0.7,0.1 0.9,0.2 0.2,0.2 0.3,0.4 0.3,0.6 0,0.2 -0.1,0.4 -0.2,0.6 -0.1,0.2 -0.3,0.3 -0.6,0.3 0.2,0.1 0.3,0.3 0.5,0.7 0.2,0.4 0.3,0.6 0.3,0.6 0.1,0.1 0.2,0.1 0.4,0.1 v 0.2 h -0.4 c -0.1,0 -0.3,0 -0.3,-0.1 -0.1,-0.1 -0.2,-0.3 -0.3,-0.7 -0.1,-0.4 -0.3,-0.6 -0.3,-0.7 -0.1,-0.1 -0.2,-0.1 -0.4,-0.1 h -0.2 v 1 c 0,0.1 0,0.2 0,0.2 0,0 0.1,0 0.1,0.1 h 0.2 v 0.2 h -1.3 v -0.2 h 0.1 c 0.1,0 0.2,0 0.2,0 0,0 0,-0.1 0,-0.2 v -2.5 c 0,-0.1 0,-0.2 0,-0.2 -0.1,0.2 -0.2,0.2 -0.4,0.2 m 0.8,1.4 h 0.2 c 0.4,0 0.7,-0.1 0.8,-0.2 0.2,-0.1 0.2,-0.3 0.2,-0.5 0,-0.2 -0.1,-0.4 -0.2,-0.5 -0.1,-0.1 -0.4,-0.2 -0.7,-0.2 -0.2,0 -0.3,0 -0.3,0 0,0 -0.1,0.1 -0.1,0.2 v 1.2 z"
   id="path38" />
</svg>
