<svg xml:space="preserve" width="137.1" height="82.1" xmlns="http://www.w3.org/2000/svg">
  <path style="fill:#199cd9;fill-opacity:1;fill-rule:nonzero;stroke:none" d="M115.7 19.7H69.8c-4.9 0-9.3.9-13.3 2.7-4 1.8-7.4 5.1-10.2 9.8H51c1.6-2.2 3.5-4.2 5.8-5.8 8.6-5.6 19.9-3.4 24.4 3.5.4.7.7 1.5 1 2.2h29.4l-3.1 8.8C104.1 53.3 97.7 63 89.2 70s-19 10.5-31.5 10.5h-6.3l-.6 1.6h13.8c14.7 0 27.2-4.6 37.6-13.7 10.3-9.1 18.3-21.7 24-37.9l3.9-11"/>
  <path style="fill:#199cd9;fill-opacity:1;fill-rule:nonzero;stroke:none" d="m77.5 32.8-3.9 3.4c-1.8-2.5-4.1-3.8-6.8-3.8-2.3 0-4.5.9-6.4 2.6-1.9 1.7-3.1 3.9-3.5 6.4-.3 1.8-.2 3.3.3 4.7.5 1.4 1.3 2.4 2.5 3.2 1.2.8 2.6 1.2 4.1 1.2 1.4 0 2.6-.3 3.9-.8 1.2-.5 2.6-1.6 4.2-3l2.6 3.6c-2.2 1.9-4.1 3.2-5.8 4-1.7.7-3.7 1.1-5.7 1.1-3.8 0-6.7-1.3-8.7-3.9-2-2.6-2.6-6-1.9-10.1.5-2.6 1.4-5 2.9-7.1 1.5-2 3.3-3.7 5.6-5 2.3-1.2 4.6-1.9 7-1.9 2 0 3.9.4 5.6 1.4 1.5 1 2.9 2.3 4 4"/>
  <path style="fill:#199cd9;fill-opacity:1;fill-rule:nonzero;stroke:none" d="M14.5 62.5h45.9c4.9 0 9.3-.9 13.3-2.7 4-1.8 7.4-5.1 10.2-9.8h-4.7c-1.6 2.2-3.5 4.2-5.8 5.8-8.6 5.7-19.9 3.4-24.4-3.5-.4-.7-.7-1.5-1-2.3H18.6l3.1-8.8C26.1 28.8 32.5 19.1 41 12.1S60 1.6 72.5 1.6h6.3l.6-1.6H65.5C50.8 0 38.3 4.6 27.9 13.7c-10.3 9.1-18.3 21.7-24 37.9L0 62.6m134.1-43.2c.5 0 1 .1 1.5.4.5.3.8.6 1.1 1.1.3.5.4 1 .4 1.5s-.1 1-.4 1.5c-.3.5-.6.8-1.1 1.1-.5.3-.9.4-1.5.4-.5 0-1-.1-1.5-.4-.5-.3-.8-.6-1.1-1.1-.3-.5-.4-1-.4-1.5s.1-1 .4-1.5c.3-.5.6-.8 1.1-1.1.5-.3 1-.4 1.5-.4m0 .4c-.4 0-.9.1-1.3.4-.4.2-.7.6-.9 1-.2.4-.3.8-.3 1.3s.1.9.3 1.3c.2.4.5.7.9 1 .4.2.8.4 1.3.4s.9-.1 1.3-.4c.4-.2.7-.6.9-1 .2-.4.3-.8.3-1.3s-.1-.9-.3-1.3c-.2-.4-.5-.7-.9-1-.4-.3-.8-.4-1.3-.4m-1.3 1v-.3h1.4c.4 0 .7.1.9.2.2.2.3.4.3.6 0 .2-.1.4-.2.6-.1.2-.3.3-.6.3.2.1.3.3.5.7l.3.6c.1.1.2.1.4.1v.2h-.4c-.1 0-.3 0-.3-.1-.1-.1-.2-.3-.3-.7-.1-.4-.3-.6-.3-.7-.1-.1-.2-.1-.4-.1h-.2v1.2s.1 0 .1.1h.2v.2h-1.3v-.2h.3v-2.9c-.1.2-.2.2-.4.2m.8 1.4h.2c.4 0 .7-.1.8-.2.2-.1.2-.3.2-.5s-.1-.4-.2-.5c-.1-.1-.4-.2-.7-.2h-.3s-.1.1-.1.2v1.2z"/>
</svg>
