<svg xml:space="preserve" width="600.1" height="84.5" xmlns="http://www.w3.org/2000/svg">
  <path class="st0" d="M115.7 19.7H69.8c-4.9 0-9.3.9-13.3 2.7-4 1.8-7.4 5.1-10.2 9.8H51c1.6-2.2 3.5-4.2 5.8-5.8 8.6-5.6 19.9-3.4 24.4 3.5.4.7.7 1.5 1 2.2h29.4l-3.1 8.8C104.1 53.3 97.7 63 89.2 70s-19 10.5-31.5 10.5h-6.3l-.6 1.6h13.8c14.7 0 27.2-4.6 37.6-13.7 10.3-9.1 18.3-21.7 24-37.9l3.9-11"/>
  <path class="st1" d="m77.5 32.8-3.9 3.4c-1.8-2.5-4.1-3.8-6.8-3.8-2.3 0-4.5.9-6.4 2.6-1.9 1.7-3.1 3.9-3.5 6.4-.3 1.8-.2 3.3.3 4.7.5 1.4 1.3 2.4 2.5 3.2 1.2.8 2.6 1.2 4.1 1.2 1.4 0 2.6-.3 3.9-.8 1.2-.5 2.6-1.6 4.2-3l2.6 3.6c-2.2 1.9-4.1 3.2-5.8 4-1.7.7-3.7 1.1-5.7 1.1-3.8 0-6.7-1.3-8.7-3.9-2-2.6-2.6-6-1.9-10.1.5-2.6 1.4-5 2.9-7.1 1.5-2 3.3-3.7 5.6-5 2.3-1.2 4.6-1.9 7-1.9 2 0 3.9.4 5.6 1.4 1.5 1 2.9 2.3 4 4m116.1-18.1c-3.6 0-6.9.6-9.6 1.9-2.8 1.3-4.9 3.6-6.4 6.9h48.7l-1.3 7.3c-1.6 9.2-5.1 16.4-10.5 21.7-5.4 5.2-12.7 7.8-21.9 7.8h-37.7l2.4-13.8h34.4c3.7 0 6.8-.7 9.6-2 2.7-1.4 4.8-3.8 6.3-7.3H159l1.2-6.7c1.6-9.2 5.1-16.4 10.5-21.7 5.4-5.2 12.7-7.8 22-7.8h37.6l-2.4 13.8m46.8-.6-8.1 46h-15.5l8.2-46h-21.2L240.5.8h58.1l-2.3 13.4M392 30.3c-.6 3.4-.8 6.2-.7 8.4.1 2.2.6 4 1.6 5.3.9 1.3 2.3 2.2 4.2 2.7 1.8.5 4.2.7 7 .7h18.6l1.7-9.8h-12l2.5-13.9h27.7l-6.4 36.5H398c-3.9 0-7.4-.5-10.5-1.5-3.1-1-5.6-2.7-7.6-5.1-1.9-2.4-3.2-5.4-3.9-9.2-.7-3.8-.5-8.5.5-14 1.6-9.2 5.1-16.4 10.5-21.7 5.4-5.2 12.8-7.8 22-7.8h37.5l-2.4 13.8h-34.2c-2.3 0-4.4.2-6.3.7-1.9.5-3.7 1.3-5.2 2.4-1.5 1.2-2.8 2.8-3.9 4.8s-1.9 4.6-2.5 7.7m113 29.9h-35.8c-4.2 0-7.6-.7-10.3-2-2.7-1.4-4.7-3.3-6.1-5.9-1.4-2.6-2.1-5.7-2.3-9.4-.2-3.7.2-7.9 1-12.6 1.6-9.2 4.7-16.4 9.2-21.7 4.5-5.2 10.5-7.8 18-7.8h36.8l-2.4 13.3h-31.4c-2.1 0-4 .2-5.5.7-1.5.5-2.8 1.2-3.8 2s-1.9 1.8-2.5 3c-.6 1.2-1.1 2.4-1.4 3.8h42.9L509 37.1h-42.9c-.8 6.2 2.5 9.4 9.9 9.4h31.4M554 14.3c-3.6 0-6.8.6-9.6 1.9-2.8 1.3-4.9 3.5-6.4 6.9h48.7l-1.3 7.3c-1.6 9.2-5.1 16.4-10.5 21.7-5.4 5.2-12.7 7.8-21.9 7.8h-37.7l2.4-13.8H552c3.6 0 6.8-.7 9.6-2 2.7-1.3 4.8-3.8 6.3-7.3h-48.6l1.2-6.7c1.6-9.2 5.1-16.4 10.5-21.6 5.4-5.2 12.7-7.8 22-7.8h37.6l-2.4 13.8M331.9.8c-2.9 0-5.6.6-8.3 1.8-3.1 1.1-5.9 3-8.2 5.4-.2.2-.5.4-.7.7-2.4 2.3-4.4 4.9-6.1 7.9-1.6 2.9-2.7 5.9-3.3 8.9l-6.5 34.8h15.3l1.9-10.2 2.4-12.5h31.3l-2.2 12.5-1.9 10.2h15.7L372.4 1m-48.6 19.2c.3-.6.7-1.1 1.1-1.6.3-.3.6-.5.9-.8.8-.7 1.7-1.3 2.7-1.9.5-.3 1.1-.5 1.7-.7 1.5-.5 3.3-.7 5.5-.7H354l-1.8 9.6h-29.9c.3-1.5.8-2.8 1.5-3.9M169.7 69.1l-2.8 2.3c-1.3-1.7-3-2.6-5-2.6-1.7 0-3.3.6-4.7 1.8-1.4 1.2-2.2 2.6-2.5 4.4-.2 1.2-.1 2.3.2 3.2.4.9 1 1.7 1.8 2.2.9.5 1.9.8 3.1.8 1 0 1.9-.2 2.8-.6.9-.4 1.9-1 3.1-2l1.9 2.4c-1.6 1.3-3 2.2-4.2 2.7-1.3.5-2.7.8-4.2.8-2.8 0-4.9-.9-6.4-2.7-1.5-1.8-2-4.1-1.5-6.8.3-1.8 1-3.4 2.1-4.8s2.4-2.5 4.1-3.4c1.7-.8 3.4-1.3 5.1-1.3 1.5 0 2.9.3 4.1.9 1.2.7 2.2 1.6 3 2.7m52.5-3.6h3.7l2.2 6.5 4.5-6.5h3.7l-7.1 10.2-1.4 7.8h-3.5l1.4-7.8m79.3-6.6-2.8 2.3c-1.3-1.7-3-2.6-5-2.6-1.7 0-3.3.6-4.7 1.8-1.4 1.2-2.2 2.6-2.5 4.4-.2 1.2-.1 2.3.2 3.2.4.9 1 1.7 1.8 2.2.9.5 1.9.8 3 .8 1 0 2-.2 2.8-.6.9-.4 1.9-1 3.1-2l1.9 2.4c-1.6 1.3-3 2.2-4.2 2.7-1.3.5-2.7.8-4.2.8-2.8 0-4.9-.9-6.4-2.7-1.5-1.8-2-4.1-1.5-6.8.3-1.8 1-3.4 2.1-4.8s2.4-2.5 4.1-3.4c1.7-.8 3.4-1.3 5.1-1.3 1.5 0 2.9.3 4.1.9 1.3.7 2.3 1.6 3.1 2.7m55.3-3.6h3.5l-2.6 14.8h5l-.6 3.2h-8.4m73.3-18h3.4l-3.2 18h-3.4m65.3-18h3.3l5.6 11.9 2.1-11.9h3.5l-3.2 18h-3.3L495 71.7l-2.1 11.8h-3.4M575 68.9l-2.8 2.4c-1.2-1.6-2.9-2.4-4.9-2.4-1.8 0-3.4.6-4.8 1.8-1.4 1.2-2.3 2.6-2.6 4.3-.3 1.7.1 3.2 1.1 4.4 1 1.2 2.5 1.8 4.3 1.8 1.2 0 2.2-.2 3.1-.8.9-.5 1.7-1.3 2.4-2.3h-5.2l.6-3.2h9.1l-.1.8c-.3 1.6-.9 3.1-2 4.5s-2.3 2.5-3.7 3.2c-1.4.7-3 1.1-4.8 1.1-1.9 0-3.5-.4-4.8-1.2-1.3-.8-2.3-2-2.9-3.5-.6-1.5-.7-3.1-.4-4.9.4-2.4 1.6-4.5 3.5-6.2 2.2-2.1 4.9-3.1 7.9-3.1 1.6 0 3 .3 4.3.9.8.4 1.8 1.2 2.7 2.4"/>
  <path class="st0" d="M14.5 62.5h45.9c4.9 0 9.3-.9 13.3-2.7 4-1.8 7.4-5.1 10.2-9.8h-4.7c-1.6 2.2-3.5 4.2-5.8 5.8-8.6 5.7-19.9 3.4-24.4-3.5-.4-.7-.7-1.5-1-2.3H18.6l3.1-8.8C26.1 28.8 32.5 19.1 41 12.1S60 1.6 72.5 1.6h6.3l.6-1.6H65.5C50.8 0 38.3 4.6 27.9 13.7c-10.3 9.1-18.3 21.7-24 37.9L0 62.6"/>
  <path class="st1" d="M596.5.4c.6 0 1.2.2 1.8.5.6.3 1 .8 1.3 1.4.3.6.5 1.2.5 1.9s-.2 1.3-.5 1.9c-.3.6-.8 1-1.3 1.4-.6.3-1.2.5-1.8.5-.6 0-1.2-.2-1.8-.5-.6-.3-1-.8-1.3-1.4-.3-.6-.5-1.2-.5-1.9s.2-1.3.5-1.9c.3-.6.8-1 1.3-1.4.5-.3 1.1-.5 1.8-.5m0 .5c-.5 0-1.1.1-1.5.4-.5.3-.9.7-1.1 1.2-.3.5-.4 1-.4 1.6 0 .6.1 1.1.4 1.6.3.5.7.9 1.1 1.2.5.3 1 .4 1.5.4.6 0 1.1-.1 1.6-.4.5-.3.9-.7 1.1-1.2.3-.5.4-1 .4-1.6 0-.6-.1-1.1-.4-1.6-.3-.5-.7-.9-1.1-1.2-.5-.2-1.1-.4-1.6-.4m-1.7 1.2v-.3h1.7c.5 0 .9.1 1.1.3.2.2.3.5.3.8 0 .3-.1.5-.2.7-.2.2-.4.3-.7.4.2.1.4.4.6.9.2.4.3.7.4.8.1.1.2.1.4.1v.3h-.5c-.2 0-.3-.1-.4-.2-.1-.1-.2-.4-.4-.8-.2-.5-.3-.7-.4-.8-.1-.1-.3-.1-.5-.1h-.2v1.6s.1.1.2.1h.3v.3h-1.6v-.3h.2c.2 0 .3 0 .3-.1V2.2c-.2-.1-.4-.1-.6-.1m1.1 1.7h.2c.5 0 .8-.1 1-.2.2-.2.3-.4.3-.7 0-.3-.1-.5-.2-.6-.2-.1-.4-.2-.8-.2-.2 0-.3 0-.4.1 0 0-.1.1-.1.2z"/>
  <path class="st0" d="M134.1 19.4c.5 0 1 .1 1.5.4.5.3.8.6 1.1 1.1.3.5.4 1 .4 1.5s-.1 1-.4 1.5c-.3.5-.6.8-1.1 1.1-.5.3-.9.4-1.5.4-.5 0-1-.1-1.5-.4-.5-.3-.8-.6-1.1-1.1-.3-.5-.4-1-.4-1.5s.1-1 .4-1.5c.3-.5.6-.8 1.1-1.1.5-.3 1-.4 1.5-.4m0 .4c-.4 0-.9.1-1.3.4-.4.2-.7.6-.9 1-.2.4-.3.8-.3 1.3s.1.9.3 1.3c.2.4.5.7.9 1 .4.2.8.4 1.3.4s.9-.1 1.3-.4c.4-.2.7-.6.9-1 .2-.4.3-.8.3-1.3s-.1-.9-.3-1.3c-.2-.4-.5-.7-.9-1-.4-.3-.8-.4-1.3-.4m-1.3 1v-.3h1.4c.4 0 .7.1.9.2.2.2.3.4.3.6 0 .2-.1.4-.2.6-.1.2-.3.3-.6.3.2.1.3.3.5.7l.3.6c.1.1.2.1.4.1v.2h-.4c-.1 0-.3 0-.3-.1-.1-.1-.2-.3-.3-.7-.1-.4-.3-.6-.3-.7-.1-.1-.2-.1-.4-.1h-.2v1.2s.1 0 .1.1h.2v.2h-1.3v-.2h.3v-2.9c-.1.2-.2.2-.4.2m.8 1.4h.2c.4 0 .7-.1.8-.2.2-.1.2-.3.2-.5s-.1-.4-.2-.5c-.1-.1-.4-.2-.7-.2h-.3s-.1.1-.1.2v1.2z"/>
</svg>
