<?xml version="1.0" encoding="UTF-8" standalone="no"?>
<!-- Generator: Adobe Illustrator 19.0.0, SVG Export Plug-In . SVG Version: 6.00 Build 0)  -->

<svg
   version="1.1"
   id="layer"
   x="0px"
   y="0px"
   viewBox="-153 -46 600.05566 233.31346"
   xml:space="preserve"
   sodipodi:docname="wahoo-fitness-logo-vector-crop.svg"
   width="600.05566"
   height="233.31346"
   inkscape:version="1.2.1 (9c6d41e410, 2022-07-14)"
   xmlns:inkscape="http://www.inkscape.org/namespaces/inkscape"
   xmlns:sodipodi="http://sodipodi.sourceforge.net/DTD/sodipodi-0.dtd"
   xmlns="http://www.w3.org/2000/svg"
   xmlns:svg="http://www.w3.org/2000/svg"><defs
   id="defs8" /><sodipodi:namedview
   id="namedview6"
   pagecolor="#ffffff"
   bordercolor="#666666"
   borderopacity="1.0"
   inkscape:showpageshadow="2"
   inkscape:pageopacity="0.0"
   inkscape:pagecheckerboard="0"
   inkscape:deskcolor="#d1d1d1"
   showgrid="false"
   inkscape:zoom="1.2929448"
   inkscape:cx="291.19573"
   inkscape:cy="122.58837"
   inkscape:window-width="1920"
   inkscape:window-height="1025"
   inkscape:window-x="0"
   inkscape:window-y="31"
   inkscape:window-maximized="1"
   inkscape:current-layer="layer" />
<style
   type="text/css"
   id="style2">
	.st0{fill:#4A4A4A;}
</style>
<path
   id="path0_fill"
   class="st0"
   d="m 125.8,-46 c 6.5,0 12.9,0 19.4,0 4.3,0 8.6,0 12.9,0 0,8 0,16 0,24 v 0 0 0 0 0 0 0 0 0 0 0 0 0 c 0,16 0,32 0,48 4.8,-7 11.9,-12.9 20.5,-14.7 10.2,-1.9 21.9,-0.9 30.1,6 5.8,4.7 9.3,11.7 11,18.8 1.8,7.4 1.8,15.1 1.7,22.7 v 0 0 0 0 0 0 0 0 0 0 0 0 0 0 c 0,2 0,3.9 0,5.8 0,5.8 0,11.6 0,17.5 v 0.1 c 0,9.4 0,18.7 -0.1,28.1 -6.4,-0.1 -12.9,0 -19.3,0 -4.3,0 -8.6,0 -12.9,0 0,-7.2 0,-14.3 0,-21.5 v -0.1 c 0,-10 0,-19.9 0,-29.9 -0.3,-6 -0.7,-12.6 -5,-17.3 -6,-5.8 -17.3,-4.1 -21.7,2.9 -3,4.6 -4,10.1 -4,15.5 0,7.7 0,15.4 0,23 0,9.2 0,18.4 0,27.6 -7.1,0.1 -14.1,0.1 -21.2,0.1 -3.7,0 -7.4,0 -11.1,0 -0.1,-10.1 0,-20.1 0,-30.2 0,-18.3 0.1,-36.6 -0.3,-55 v -11.9 0 0 0 0 0 0 0 0 0 0 0 0 0 c 0,-19.8 0.1,-39.6 0,-59.5 z M 271,10.8 c 16.2,-2.1 33.6,1.8 46.1,12.5 20,17 22.2,49.7 6.7,70.3 -18.9,24 -58.4,26.5 -81.6,7.3 C 230.8,91.6 224.8,76.8 225.1,62.4 224.8,50.3 228.6,38 236.5,28.7 244.9,18.5 257.8,12.4 271,10.8 Z m 161.1,14.4 c -13,-12.6 -32.5,-17 -50.2,-14.2 -13.9,2.1 -27.3,9.3 -35.3,20.9 -8.2,11.6 -10.3,26.5 -8,40.2 2,12 8.7,23.3 18.7,30.5 13.9,10.2 32.5,12.9 49.2,9.2 14.3,-3.1 27.6,-12.1 34.3,-25.2 9.9,-19.5 7.4,-45.7 -8.7,-61.4 z M -153,14.1 c 7.4,0.1 14.8,0.1 22.2,0.1 4.5,0 9.1,0 13.6,0 3,6.8 5.9,13.6 8.8,20.3 v 0 0 0 0 0 0 0 0 0 0 0 c 4.5,10.5 9,20.9 13.7,31.3 5.2,-12.4 10.5,-24.7 15.9,-37.1 v -0.1 c 2.2,-5 4.3,-9.9 6.5,-14.9 h 4.8 0.1 c 4.7,0 9.5,0 14.2,0 3.9,9 7.8,18 11.8,27.1 v 0.1 0 0.1 0 0.1 l 0.1,0.2 0.1,0.2 c 3.5,8 7,16 10.5,24.1 4.9,-10.8 9.6,-21.7 14.2,-32.6 v 0 c 2.8,-6.4 5.5,-12.8 8.3,-19.2 4.9,0 9.8,0 14.7,0 7,0 14,0 20.9,0.1 C 19.6,30 11.8,46 4,62 l -0.1,0.1 c -7.8,16.1 -15.7,32.2 -23.5,48.3 -7.1,0.1 -14.2,0.1 -21.3,0 -2.5,-5.8 -4.9,-11.6 -7.3,-17.3 -4.8,-11.6 -9.7,-23.2 -15,-34.6 -4,9.8 -8.1,19.6 -12.3,29.3 v 0 c -3.2,7.6 -6.4,15.3 -9.6,22.9 -3.8,0.1 -7.6,0.1 -11.4,0 v 0 c -3.2,0 -6.3,0 -9.5,0 -4,-8.1 -7.9,-16.2 -11.9,-24.3 l -0.2,-0.4 v 0 0 0 0 0 0 0 0 0 0 0 C -129.7,62.2 -141.5,38.2 -153,14.1 Z M 89,22.7 C 75.3,6.5 48.3,7.1 33.1,21 10.7,41.1 10,79.5 30.9,100.9 c 10,10.3 25.6,15.3 39.8,11.7 7.5,-1.8 14.6,-6.3 18.4,-13.1 0,1.8 0,3.7 0,5.5 0,1.8 0,3.6 0,5.5 7.3,0.1 14.7,0.1 22,0.1 v 0 c 3.4,0 6.8,0 10.3,0 0.1,-20 0,-40 -0.1,-60 v 0 0 0 0 0 0 0 0 0 0 c -0.1,-12.2 -0.2,-24.4 -0.2,-36.7 h -5.9 c -8.8,0 -17.6,0 -26.3,0 -0.2,2.9 -0.1,5.9 0.1,8.8 z m 266.2,111.7 c 3,0 6,0 9,0 5.7,0 11.5,0 17.2,0.1 0,1.9 0,3.9 0,5.8 -4.2,0.1 -8.3,0.1 -12.4,0.1 -2.5,0 -5,0 -7.5,0 -0.1,3.2 0,6.3 0.1,9.5 v 0 c 0.1,2.2 0.2,4.4 0.2,6.6 h 18.4 v 6 h -18.4 v 18.1 c 2.5,0 5,0 7.5,0 h 0.1 c 4.4,0 8.8,0 13.1,0 0,0.7 0,1.3 0,2 0,1.3 0,2.7 0.1,4 -3.5,0 -7.1,0 -10.6,0 -5.6,0 -11.2,0 -16.7,0 -0.1,-11.2 -0.1,-22.3 -0.1,-33.5 v 0 c 0.1,-6.3 0.1,-12.5 0,-18.7 z m 58.1,1.6 c -6.3,-2.9 -14.1,-3.5 -20.2,0 -6.1,3.6 -8.3,12.1 -4.9,18.3 2.3,4.1 6.7,6.6 11,8.3 l 0.5,0.2 c 3.3,1.4 6.9,3 8.2,6.6 1.9,4.2 -0.2,9.6 -4.6,11.2 -5.3,2.1 -11.2,0.1 -15.9,-2.6 l -0.3,1.1 v 0 0 0 c -0.5,1.6 -0.9,3.2 -1.4,4.9 6.9,3.7 16,4.8 23,0.7 6.7,-4 8.3,-13.2 5,-19.8 -2.4,-4.1 -6.7,-6.5 -11,-8.2 l -0.2,-0.1 c -3.3,-1.4 -7.1,-3.1 -8.5,-6.6 -1.6,-3.5 0.1,-7.9 3.6,-9.5 4.6,-2.2 9.8,-0.6 14.2,1.3 l 0.4,-1.4 c 0.2,-1.5 0.7,-3 1.1,-4.4 z m 10.6,0.6 c 6.1,-4.3 14.8,-3.9 21.2,-0.5 -0.6,1.9 -1.2,3.8 -1.8,5.7 -4.5,-2.3 -10.2,-3.7 -14.8,-1 -4.3,2.6 -4.4,9.4 -0.4,12.3 2,1.5 4.3,2.6 6.6,3.6 2.8,1.3 5.5,2.5 7.8,4.6 7,6.1 5.7,18.8 -2.3,23.4 -7,4 -16,2.9 -22.8,-0.9 0.6,-2 1.2,-4 1.9,-6 5,2.9 11.6,4.9 17,2 4.9,-2.7 5.5,-10.2 1.2,-13.7 -2.1,-1.8 -4.6,-2.9 -7,-4 v 0 c -2.7,-1.1 -5.3,-2.3 -7.4,-4.3 -6.6,-5.2 -6.1,-16.4 0.8,-21.2 z m -172.4,-1.9 c -8.7,0 -17.5,0 -26.2,0 0,6.9 0,13.9 0,20.8 0,10.4 0,20.8 -0.1,31.2 2.2,0.1 4.5,0.1 6.7,0 0,-4.3 0,-8.5 0,-12.8 0,-3.5 0,-7.1 0,-10.6 6.1,0 12.2,-0.1 18.3,0 0,-0.7 -0.1,-1.3 -0.1,-2 v -0.1 c -0.1,-1.3 -0.1,-2.7 -0.2,-4 -3,0 -6,0 -9,0 -3,0 -6,0 -9,0 0,-2.5 0,-5 0,-7.5 v 0 c 0,-3 0,-6 0,-9 2.8,-0.1 5.5,-0.1 8.3,0 v 0 0 0 0 0 0 c 3.8,0 7.6,0 11.3,-0.2 0.1,-1.9 0.1,-3.9 0,-5.8 z m 6.1,0 c 2.2,0 4.4,0 6.6,0 0.1,6.4 0,12.8 0,19.2 -0.1,11 -0.1,22 0.4,32.9 -2.2,0 -4.5,0 -6.7,0 0.1,-17.4 -0.1,-34.8 -0.3,-52.1 z m 39,0 c -8.7,0 -17.4,0 -26.1,0 0,2 0,3.9 0,5.9 v 0 c 1.9,0 3.9,0 5.8,0 h 0.1 c 2.9,0 5.7,0 8.6,0 0,11.4 0,22.9 0,34.4 v 11.5 0 c 2.2,0 4.5,0 6.7,-0.1 -0.1,-10.8 0,-21.5 0,-32.3 v -0.4 0 0 0 c 0,-4.3 0,-8.7 0,-13 4.9,0 9.8,0 14.7,0 0,-1 0,-2 0,-3 v 0 0 0 0 -0.1 c 0,-1 0,-1.9 0,-2.8 -3.1,0 -6.2,0 -9.2,0 z m 16.1,0.1 c 2.4,-0.1 4.8,-0.1 7.1,-0.1 2.4,4.3 5,8.5 7.5,12.7 v 0 0 0 c 5.8,9.6 11.5,19.1 16.2,29.3 -0.7,-14.1 -0.8,-28.3 -0.6,-42.4 1,0 2,0 3,0 h 0.1 v 0 c 1,0 2.1,0 3.1,0 0,5.8 0,11.6 0,17.4 0,11.6 0,23.2 -0.1,34.7 -1.7,0 -3.3,0 -5,0 h -1.6 c -2.5,-4.4 -5.1,-8.8 -7.7,-13.2 v 0 c -5.7,-9.5 -11.3,-19.1 -16.2,-29.1 0.2,9.9 0.2,19.8 0.2,29.6 0,4.2 0,8.5 0,12.7 -2,0 -4.1,-0.1 -6.1,-0.2 0.2,-17.1 0.1,-34.3 0.1,-51.4 z M 293.8,46.2 c -5.5,-5.7 -14.5,-7.3 -21.8,-4.6 -14.2,5.1 -17.1,25.4 -7.4,35.9 8.1,8.8 24.5,7.9 31.2,-2 5.9,-8.8 5.2,-21.5 -2,-29.3 z m 90.4,-4.5 c 6.8,-2.6 15.3,-1.9 20.9,3 8.9,7.6 9.9,22 3,31.2 -7.7,10.4 -26.3,9.8 -32.9,-1.4 -6.7,-10.8 -3.6,-27.8 9,-32.8 z M 62.3,41.9 C 69,39.5 77,40.5 82.5,45.1 92,53.3 92.4,69.4 83.8,78.3 76.8,85 64.8,85.5 57,79.8 44.8,70.3 47.1,47.3 62.3,41.9 Z" />
</svg>
