<svg viewBox="-153 -46 600.056 233.313" xml:space="preserve" width="600.056" height="233.313" xmlns="http://www.w3.org/2000/svg">
  <path d="M125.8-46h32.3v72c4.8-7 11.9-12.9 20.5-14.7 10.2-1.9 21.9-.9 30.1 6 5.8 4.7 9.3 11.7 11 18.8 1.8 7.4 1.8 15.1 1.7 22.7v23.4c0 9.4 0 18.7-.1 28.1-6.4-.1-12.9 0-19.3 0h-12.9V58.8c-.3-6-.7-12.6-5-17.3-6-5.8-17.3-4.1-21.7 2.9-3 4.6-4 10.1-4 15.5v50.6c-7.1.1-14.1.1-21.2.1h-11.1c-.1-10.1 0-20.1 0-30.2 0-18.3.1-36.6-.3-55V13.5c0-19.8.1-39.6 0-59.5zM271 10.8c16.2-2.1 33.6 1.8 46.1 12.5 20 17 22.2 49.7 6.7 70.3-18.9 24-58.4 26.5-81.6 7.3-11.4-9.3-17.4-24.1-17.1-38.5-.3-12.1 3.5-24.4 11.4-33.7 8.4-10.2 21.3-16.3 34.5-17.9Zm161.1 14.4c-13-12.6-32.5-17-50.2-14.2-13.9 2.1-27.3 9.3-35.3 20.9-8.2 11.6-10.3 26.5-8 40.2 2 12 8.7 23.3 18.7 30.5 13.9 10.2 32.5 12.9 49.2 9.2 14.3-3.1 27.6-12.1 34.3-25.2 9.9-19.5 7.4-45.7-8.7-61.4zM-153 14.1c7.4.1 14.8.1 22.2.1h13.6c3 6.8 5.9 13.6 8.8 20.3 4.5 10.5 9 20.9 13.7 31.3 5.2-12.4 10.5-24.7 15.9-37.1v-.1c2.2-5 4.3-9.9 6.5-14.9h19.1c3.9 9 7.8 18 11.8 27.1v.3l.1.2.1.2c3.5 8 7 16 10.5 24.1 4.9-10.8 9.6-21.7 14.2-32.6 2.8-6.4 5.5-12.8 8.3-19.2H6.5c7 0 14 0 20.9.1C19.6 30 11.8 46 4 62l-.1.1c-7.8 16.1-15.7 32.2-23.5 48.3-7.1.1-14.2.1-21.3 0-2.5-5.8-4.9-11.6-7.3-17.3-4.8-11.6-9.7-23.2-15-34.6-4 9.8-8.1 19.6-12.3 29.3-3.2 7.6-6.4 15.3-9.6 22.9-3.8.1-7.6.1-11.4 0h-9.5c-4-8.1-7.9-16.2-11.9-24.3l-.2-.4c-11.6-23.8-23.4-47.8-34.9-71.9Zm242 8.6C75.3 6.5 48.3 7.1 33.1 21 10.7 41.1 10 79.5 30.9 100.9c10 10.3 25.6 15.3 39.8 11.7 7.5-1.8 14.6-6.3 18.4-13.1v11c7.3.1 14.7.1 22 .1h10.3c.1-20 0-40-.1-60-.1-12.2-.2-24.4-.2-36.7H88.9c-.2 2.9-.1 5.9.1 8.8zm266.2 111.7h9c5.7 0 11.5 0 17.2.1v5.8c-4.2.1-8.3.1-12.4.1h-7.5c-.1 3.2 0 6.3.1 9.5.1 2.2.2 4.4.2 6.6h18.4v6h-18.4v18.1h20.7v2c0 1.3 0 2.7.1 4h-27.3c-.1-11.2-.1-22.3-.1-33.5.1-6.3.1-12.5 0-18.7zm58.1 1.6c-6.3-2.9-14.1-3.5-20.2 0-6.1 3.6-8.3 12.1-4.9 18.3 2.3 4.1 6.7 6.6 11 8.3l.5.2c3.3 1.4 6.9 3 8.2 6.6 1.9 4.2-.2 9.6-4.6 11.2-5.3 2.1-11.2.1-15.9-2.6l-.3 1.1c-.5 1.6-.9 3.2-1.4 4.9 6.9 3.7 16 4.8 23 .7 6.7-4 8.3-13.2 5-19.8-2.4-4.1-6.7-6.5-11-8.2l-.2-.1c-3.3-1.4-7.1-3.1-8.5-6.6-1.6-3.5.1-7.9 3.6-9.5 4.6-2.2 9.8-.6 14.2 1.3l.4-1.4c.2-1.5.7-3 1.1-4.4zm10.6.6c6.1-4.3 14.8-3.9 21.2-.5l-1.8 5.7c-4.5-2.3-10.2-3.7-14.8-1-4.3 2.6-4.4 9.4-.4 12.3 2 1.5 4.3 2.6 6.6 3.6 2.8 1.3 5.5 2.5 7.8 4.6 7 6.1 5.7 18.8-2.3 23.4-7 4-16 2.9-22.8-.9.6-2 1.2-4 1.9-6 5 2.9 11.6 4.9 17 2 4.9-2.7 5.5-10.2 1.2-13.7-2.1-1.8-4.6-2.9-7-4-2.7-1.1-5.3-2.3-7.4-4.3-6.6-5.2-6.1-16.4.8-21.2zm-172.4-1.9h-26.2v20.8c0 10.4 0 20.8-.1 31.2 2.2.1 4.5.1 6.7 0v-23.4c6.1 0 12.2-.1 18.3 0 0-.7-.1-1.3-.1-2v-.1c-.1-1.3-.1-2.7-.2-4h-18v-16.5c2.8-.1 5.5-.1 8.3 0 3.8 0 7.6 0 11.3-.2.1-1.9.1-3.9 0-5.8zm6.1 0h6.6c.1 6.4 0 12.8 0 19.2-.1 11-.1 22 .4 32.9h-6.7c.1-17.4-.1-34.8-.3-52.1zm39 0h-26.1v5.9H285v45.9c2.2 0 4.5 0 6.7-.1-.1-10.8 0-21.5 0-32.3v-13.4h14.7v-5.9h-9.2zm16.1.1c2.4-.1 4.8-.1 7.1-.1 2.4 4.3 5 8.5 7.5 12.7 5.8 9.6 11.5 19.1 16.2 29.3-.7-14.1-.8-28.3-.6-42.4h6.2v17.4c0 11.6 0 23.2-.1 34.7h-6.6c-2.5-4.4-5.1-8.8-7.7-13.2-5.7-9.5-11.3-19.1-16.2-29.1.2 9.9.2 19.8.2 29.6v12.7c-2 0-4.1-.1-6.1-.2.2-17.1.1-34.3.1-51.4zm-18.9-88.6c-5.5-5.7-14.5-7.3-21.8-4.6-14.2 5.1-17.1 25.4-7.4 35.9 8.1 8.8 24.5 7.9 31.2-2 5.9-8.8 5.2-21.5-2-29.3zm90.4-4.5c6.8-2.6 15.3-1.9 20.9 3 8.9 7.6 9.9 22 3 31.2-7.7 10.4-26.3 9.8-32.9-1.4-6.7-10.8-3.6-27.8 9-32.8zm-321.9.2c6.7-2.4 14.7-1.4 20.2 3.2 9.5 8.2 9.9 24.3 1.3 33.2-7 6.7-19 7.2-26.8 1.5-12.2-9.5-9.9-32.5 5.3-37.9Z" style="fill:#4a4a4a"/>
</svg>
