<svg xmlns="http://www.w3.org/2000/svg" viewBox="0 0 432 91"><path d="M74.5 49.5c1.6 2.8 2.5 6.3 2.5 10.4v.2c0 4.2-.8 8-2.5 11.4-1.7 3.4-4.1 6.2-7.1 8.6-3.1 2.3-6.8 4.1-11.2 5.4-4.4 1.3-9.3 1.9-14.7 1.9-8.2 0-15.9-1.1-23-3.4S5.3 78.3.2 73.8l14.4-17.1c4.4 3.4 9 5.8 13.8 7.2 4.8 1.5 9.6 2.2 14.4 2.2 2.5 0 4.2-.3 5.3-.9 1.1-.6 1.6-1.5 1.6-2.5v-.2c0-1.2-.8-2.1-2.4-2.9-1.6-.8-4.5-1.6-8.8-2.4-4.5-.9-8.8-2-12.9-3.2-4.1-1.2-7.7-2.8-10.8-4.7-3.1-1.9-5.6-4.3-7.4-7.2-2-3.1-2.9-6.7-2.9-10.9V31c0-3.8.7-7.4 2.2-10.7 1.5-3.3 3.7-6.2 6.6-8.6 2.9-2.5 6.5-4.4 10.7-5.8 4.2-1.4 9.1-2.1 14.7-2.1 7.8 0 14.7.9 20.5 2.8 5.9 1.8 11.1 4.6 15.8 8.3L61.9 33c-3.8-2.8-7.9-4.8-12.1-6.1-4.3-1.3-8.3-1.9-12-1.9-2 0-3.5.3-4.4.9-1 .6-1.4 1.4-1.4 2.4v.2c0 1.1.7 2 2.2 2.8 1.5.8 4.3 1.6 8.5 2.4 5.1.9 9.8 2 14 3.3 4.2 1.3 7.8 3 10.9 5 2.9 2.2 5.3 4.6 6.9 7.5zm1-21.4h23.7v57.8h26.9V28.1h23.7V5.3H75.5v22.8zM387.9.3l-43.3 85.6h25.8l17.5-34.6 17.6 34.6h25.8L387.9.3zM267.3.3l43.4 85.6h-25.8l-17.5-34.6-17.5 34.6h-48.2l-15.2-23h-5.7v23h-26.9V5.3H193c7.2 0 13.1.8 17.8 2.5 4.6 1.6 8.4 3.9 11.2 6.7 2.5 2.4 4.3 5.2 5.5 8.3 1.2 3.1 1.8 6.7 1.8 10.8v.2c0 5.9-1.4 10.9-4.3 14.9-2.8 4.1-6.7 7.3-11.6 9.7l14 20.4L267.3.3zm-64.8 35.3c0-2.6-.9-4.5-2.8-5.8-1.8-1.3-4.3-1.9-7.5-1.9h-11.7v15.8h11.6c3.2 0 5.8-.7 7.6-2.1 1.8-1.4 2.8-3.3 2.8-5.8v-.2zM345.2 5.3L327.6 40 310 5.3h-25.8l43.4 85.6 43.3-85.6h-25.7z" fill="#fc4c02"/></svg>