<?xml version="1.0" encoding="UTF-8"?>
<svg version="1.1" viewBox="0 0 345.81 97.134" xml:space="preserve" xmlns="http://www.w3.org/2000/svg">
<path d="m52.9 42.334h-13.6l10.6-41.4h22.8c8.4 0 18.6 1.9 16.5 10.7-1.6 6.2-8.1 9.5-15.2 10.1v0.3c8.7 0.2 9.5 3.9 8.7 10.4-0.5 3.3-0.6 6.7-0.3 10.1h-15c0-2.9 0.3-5.9 0.8-8.8 0.8-5 0.9-7-6.1-7h-5.1zm11.5-23.8c4.3 0 8.7-0.5 9.8-4.8 1.1-4.3-3.1-4.8-7.4-4.8h-5.3l-2.5 9.5h5.4z" fill="#005695"/>
<path d="m83.3 42.334 30-41.4h16.8l9 41.4h-15.5l-1.2-8.1h-20l-5.3 8.1zm37.8-16-2-17.4h-0.2l-11 17.2z" fill="#005695"/>
<path d="m142.2 42.334 10.4-41.4h13.7l-10.4 41.4z" fill="#005695"/>
<path d="m172.1 0.83356h19.2l8.7 30.9 0.2-0.2 7.8-30.7h12.3l-10.6 41.4h-18.9l-8.7-31.8-8.1 31.8h-12.3z" fill="#005695"/>
<path d="m215.7 42.334 10.6-41.4h13.7l-10.6 41.4z" fill="#005695"/>
<path d="m245.8 0.83356h19.2l8.7 30.9 0.2-0.2 7.8-30.7h12.3l-10.6 41.4h-18.9l-8.7-31.8h-0.2l-8.1 31.8h-12.3z" fill="#005695"/>
<path d="m328.4 26.734h-9.9l2-8.1h23.7l-5.7 22.3c-11.5 1.4-13.8 2.3-25.6 2.3-15.4-0.5-22.7-8.5-19.2-21.6 3.4-13 14.7-21.1 30.3-21.6 12.1-0.3 24.2 1.2 21.4 13.2h-13.7c0.3-4-3.1-5.3-7.6-5.3-9.2 0-14.3 6.8-16 13.5-2 8.2 1.4 13.5 11.2 13.5 2.5 0 4.8-0.3 7.3-0.6z" fill="#005695"/>
<path d="m50.1 96.334 10.6-41.4h22.7c12.1 0 19.2 3.3 16.8 13.3-2.5 10.1-11.3 13.3-23.4 13.3h-9l-3.7 14.7h-14zm26.5-22.8c5.4-0.2 8.2-2.2 9-5.3s-0.9-5.1-6.4-5.3h-7l-2.6 10.6z" fill="#005695"/>
<path d="m96.9 96.334 10.6-41.4h37.7l-2 8.1h-24.1l-2.2 8.5h22l-2 8.1h-22l-2.2 8.8h24.1l-2 8.1h-37.9z" fill="#005695"/>
<path d="m136.7 96.334 30.1-41.4h16.8l9 41.4h-15.6l-1.2-8.1h-20l-5.3 8.1zm37.7-16-1.9-17.2h-0.2l-11.2 17.2z" fill="#005695"/>
<path d="m234.8 54.834h16.3l-21.8 18.3 12.6 23.1h-16.9l-10.7-22h-0.2l-5.6 22h-13.7l10.6-41.4h13.7l-4.7 18.2h0.2z" fill="#005695"/>
<path d="m274.3 67.134c0.5-1.2 0.2-2.8-0.8-3.7-1.4-1.1-3.3-1.6-5-1.4-3.1 0-6.4 1.7-6.8 3.7-0.8 3.1 3.4 4 6.8 4.8 7.8 1.9 19.7 2.5 16.9 13.7-2.2 8.7-13.5 12.9-25 12.9s-21-2.8-18.3-14.1h13.9c-1.1 3.9 1.9 6.1 6.8 6.1 3.1 0 7.6-1.4 8.2-4.2 1.4-5.6-9-4.3-18.8-8.4-4.5-1.9-6.1-5.6-5-10.1 3.1-9.8 14-12.6 24.4-12.6s19.9 3.1 16.6 13z" fill="#005695"/>
<polygon transform="translate(-21 -299.87)" points="50.6 308.8 42.1 342.2 28.4 342.2 37 308.8 21 308.8 23 300.7 39 300.7 52.7 300.7 67.4 300.7 65.4 308.8" fill="#005695"/>
<path d="m297 56.134h-2.2l-1.2 4.7h-1.6l1.2-4.7h-2.2l0.3-1.1h5.9zm7.8 4.6h-1.6l1.2-4.7-3.3 4.7h-0.9l-0.8-4.7-1.2 4.7h-1.6l1.4-5.7h2.5l0.6 3.4 2.3-3.4h2.5z" fill="#005695"/>
</svg>
